<svg width="260" height="296" viewBox="0 0 260 296" fill="none" xmlns="http://www.w3.org/2000/svg">
<path d="M0 145.295L36.8382 95.2246H57.6793V145.295H64.6789V157.275H57.6793V174.305H36.8306V157.275H0V145.295ZM36.8306 145.295V120.598L19.617 145.295H36.8306Z" fill="#75D1F9"/>
<path d="M194.908 145.295L231.739 95.2246H252.58V145.295H260V157.275H252.58V174.305H231.739V157.275H194.908V145.295ZM231.739 145.295V120.598L214.525 145.295H231.739Z" fill="#75D1F9"/>
<path d="M130.855 214.232C171.014 213.689 203.128 180.614 202.585 140.356C202.042 100.098 169.047 67.9027 128.888 68.4453C88.7297 68.9879 56.6151 102.063 57.1583 142.321C57.7014 182.579 90.6966 214.775 130.855 214.232Z" fill="#75D1F9"/>
<path d="M163.71 159.796C176.635 150.096 189.41 153.48 196.365 156.713C197.078 151.622 202.696 89.9727 130.499 89.9727C130.484 89.9727 130.477 89.9727 130.462 89.9727C130.447 89.9727 130.439 89.9727 130.424 89.9727C59.0687 89.9727 63.8378 151.622 64.5513 156.713C71.5058 153.48 84.2809 150.096 97.2062 159.796C110.207 169.556 109.846 184.105 108.269 192.459C115.426 193.745 122.944 194.331 130.424 194.369C130.439 194.369 130.447 194.369 130.462 194.369C130.477 194.369 130.484 194.369 130.499 194.369C137.972 194.331 145.498 193.745 152.655 192.459C151.078 184.105 150.71 169.548 163.71 159.796ZM130.56 153.765C129.072 153.765 126.617 151.577 126.339 149.57C125.971 147.201 129.072 147.013 130.807 146.923C138.182 146.908 132.993 153.765 130.56 153.765Z" fill="white"/>
<path d="M130.799 146.922C129.064 147.012 125.97 147.193 126.331 149.569C126.601 151.576 129.064 153.764 130.551 153.764C132.992 153.764 138.182 146.907 130.799 146.922Z" fill="#333333"/>
<path d="M97.2057 159.794C84.2804 150.095 71.5053 153.478 64.5508 156.711C67.5249 177.908 86.1505 188.495 108.268 192.458C109.846 184.104 110.206 169.547 97.2057 159.794Z" fill="white"/>
<path d="M196.364 156.711C189.41 153.478 176.635 150.095 163.709 159.794C150.709 169.554 151.069 184.104 152.647 192.458C174.765 188.487 193.398 177.9 196.364 156.711Z" fill="white"/>
<path d="M82.1031 96.3633C77.5969 98.3634 77.3716 104.597 81.4497 107.198L90.2367 100.544C88.4943 95.7242 84.3486 95.4009 82.1031 96.3633Z" fill="#FFC1C2"/>
<path d="M76.9659 85.5739C64.0856 91.2885 63.4398 109.109 75.1033 116.538L100.218 97.5144C95.2385 83.7543 83.3872 82.8369 76.9659 85.5739ZM81.4495 107.192C77.3714 104.59 77.5967 98.3565 82.1029 96.3564C84.3485 95.4015 88.4942 95.7173 90.2366 100.53L81.4495 107.192Z" fill="#333333"/>
<path d="M178.873 96.3622C176.627 95.4072 172.482 95.723 170.739 100.535L179.526 107.19C183.604 104.596 183.379 98.3623 178.873 96.3622Z" fill="#FFC1C2"/>
<path d="M184.011 85.5741C177.59 82.8371 165.738 83.7544 160.767 97.507L185.874 116.531C197.537 109.109 196.884 91.2962 184.011 85.5741ZM179.527 107.192L170.74 100.537C172.483 95.725 176.628 95.4016 178.874 96.3641C183.38 98.3642 183.606 104.598 179.527 107.192Z" fill="#333333"/>
<path d="M119.241 178.683C120.405 182.796 124.987 185.871 130.462 185.871C134.157 185.871 137.439 184.472 139.542 182.307C134.127 177.833 125.032 176.133 119.241 178.683Z" fill="#FF7979"/>
<path d="M196.364 156.711C189.41 153.478 176.635 150.095 163.709 159.794C150.709 169.554 151.069 184.104 152.647 192.458C174.765 188.487 193.398 177.9 196.364 156.711Z" fill="#FFDBDB"/>
<path d="M141.968 176.63C141.968 171.524 136.816 167.389 130.462 167.389C124.108 167.389 118.956 171.524 118.956 176.63C118.956 177.337 119.061 178.021 119.241 178.682C125.039 176.133 134.134 177.833 139.542 182.307C141.059 180.743 141.968 178.773 141.968 176.63Z" fill="#333333"/>
<path d="M97.2057 159.794C84.2804 150.095 71.5053 153.478 64.5508 156.711C67.5249 177.908 86.1505 188.495 108.268 192.458C109.846 184.104 110.206 169.547 97.2057 159.794Z" fill="#FFDBDB"/>
<path d="M120.683 128.756C125.114 134.967 120.54 145.839 110.469 153.035C100.398 160.231 88.6439 161.036 84.2128 154.825C79.7892 148.614 84.3555 137.741 94.4344 130.545C104.506 123.35 116.259 122.545 120.683 128.756Z" fill="#333333"/>
<path d="M140.233 128.756C135.802 134.967 140.375 145.839 150.447 153.035C160.518 160.231 172.272 161.036 176.703 154.825C181.134 148.614 176.56 137.741 166.489 130.545C156.41 123.35 144.656 122.545 140.233 128.756Z" fill="#333333"/>
<path d="M152.542 137.08C150.162 137.08 148.231 139.013 148.231 141.404C148.231 143.787 150.162 145.727 152.542 145.727C154.923 145.727 156.861 143.795 156.861 141.404C156.861 139.02 154.923 137.08 152.542 137.08ZM152.542 142.547C151.911 142.547 151.401 142.035 151.401 141.404C151.401 140.772 151.911 140.261 152.542 140.261C153.173 140.261 153.684 140.772 153.684 141.404C153.684 142.035 153.173 142.547 152.542 142.547Z" fill="white"/>
<path d="M108.374 137.08C105.993 137.08 104.056 139.013 104.056 141.404C104.056 143.787 105.986 145.727 108.374 145.727C110.755 145.727 112.685 143.795 112.685 141.404C112.693 139.02 110.762 137.08 108.374 137.08ZM108.374 142.547C107.743 142.547 107.233 142.035 107.233 141.404C107.233 140.772 107.743 140.261 108.374 140.261C109.005 140.261 109.516 140.772 109.516 141.404C109.516 142.035 109.005 142.547 108.374 142.547Z" fill="white"/>
<path d="M181.968 88.0161C186.977 89.3921 190.74 94.3397 190.732 99.355C190.732 102.122 188.134 103.498 184.829 95.9563C182.358 90.317 175.839 90.4147 176.65 88.8733C177.296 87.6326 180.113 87.5048 181.968 88.0161Z" fill="#4D4D4D"/>
<path d="M79.0084 88.0161C73.999 89.3921 70.2363 94.3397 70.2363 99.355C70.2363 102.122 72.8349 103.498 76.1394 95.9563C78.6103 90.317 85.1293 90.4147 84.3182 88.8733C83.6723 87.6326 80.8559 87.5048 79.0084 88.0161Z" fill="#4D4D4D"/>
<path d="M130.221 84.3323C133.826 53.9924 168.847 60.3386 195.569 59.7897C217.168 59.3461 228.704 57.0452 227.202 33.7584C226.677 25.5474 234.052 -3.42396 190.484 0.440891C146.917 4.30575 100.984 -0.73962 73.2405 0.0950086C45.4974 0.929637 35.4636 6.72692 34.9379 31.8334C34.4122 56.94 38.2124 61.5793 78.8207 59.3536C131.671 56.4587 130.221 84.3323 130.221 84.3323Z" fill="#333333"/>
<path d="M88.8614 29.5037C88.8614 31.557 88.6748 33.517 88.3014 35.3837C87.9548 37.2237 87.2881 38.8503 86.3014 40.2637C85.3148 41.6503 83.9681 42.7703 82.2614 43.6237C80.5548 44.4503 78.3414 44.8637 75.6214 44.8637C72.9014 44.8637 70.6881 44.4503 68.9814 43.6237C67.2748 42.7703 65.9281 41.637 64.9414 40.2237C63.9814 38.8103 63.3148 37.1837 62.9414 35.3437C62.5948 33.477 62.4214 31.5303 62.4214 29.5037C62.4214 27.6637 62.5948 25.8637 62.9414 24.1037C63.3148 22.3437 63.9814 20.7703 64.9414 19.3837C65.9281 17.997 67.2748 16.8903 68.9814 16.0637C70.7148 15.2103 72.9281 14.7837 75.6214 14.7837C78.3148 14.7837 80.5148 15.2103 82.2214 16.0637C83.9548 16.8903 85.3014 17.997 86.2614 19.3837C87.2481 20.7703 87.9281 22.3437 88.3014 24.1037C88.6748 25.8637 88.8614 27.6637 88.8614 29.5037ZM81.5014 29.5037C81.5014 27.9303 81.3948 26.597 81.1814 25.5037C80.9948 24.3837 80.6614 23.477 80.1814 22.7837C79.7281 22.0903 79.1281 21.5837 78.3814 21.2637C77.6348 20.9437 76.7148 20.7837 75.6214 20.7837C74.5281 20.7837 73.6081 20.9437 72.8614 21.2637C72.1148 21.557 71.5148 22.0503 71.0614 22.7437C70.6081 23.437 70.2881 24.3437 70.1014 25.4637C69.9148 26.557 69.8214 27.9037 69.8214 29.5037C69.8214 31.2903 69.9148 32.7837 70.1014 33.9837C70.3148 35.1837 70.6481 36.157 71.1014 36.9037C71.5548 37.6237 72.1414 38.1437 72.8614 38.4637C73.6081 38.757 74.5281 38.9037 75.6214 38.9037C76.7148 38.9037 77.6348 38.7437 78.3814 38.4237C79.1281 38.1037 79.7281 37.5837 80.1814 36.8637C80.6614 36.117 80.9948 35.1437 81.1814 33.9437C81.3948 32.7437 81.5014 31.2637 81.5014 29.5037ZM114.156 33.4637C114.156 35.1437 113.943 36.677 113.516 38.0637C113.116 39.4503 112.463 40.6503 111.556 41.6637C110.676 42.677 109.516 43.4637 108.076 44.0237C106.636 44.5837 104.876 44.8637 102.796 44.8637C100.716 44.8637 98.9564 44.5837 97.5164 44.0237C96.1031 43.4637 94.9431 42.6903 94.0364 41.7037C93.1298 40.6903 92.4764 39.4903 92.0764 38.1037C91.6764 36.717 91.4764 35.1837 91.4764 33.5037C91.4764 31.8237 91.6764 30.2903 92.0764 28.9037C92.4764 27.517 93.1298 26.3303 94.0364 25.3437C94.9431 24.3303 96.1031 23.5437 97.5164 22.9837C98.9564 22.4237 100.716 22.1437 102.796 22.1437C104.876 22.1437 106.636 22.4237 108.076 22.9837C109.516 23.517 110.676 24.2903 111.556 25.3037C112.463 26.2903 113.116 27.477 113.516 28.8637C113.943 30.2503 114.156 31.7837 114.156 33.4637ZM106.836 33.4637C106.836 32.237 106.756 31.237 106.596 30.4637C106.436 29.6903 106.183 29.077 105.836 28.6237C105.49 28.1703 105.063 27.8637 104.556 27.7037C104.05 27.517 103.463 27.4237 102.796 27.4237C102.103 27.4237 101.503 27.517 100.996 27.7037C100.516 27.8637 100.103 28.1703 99.7564 28.6237C99.4098 29.077 99.1564 29.7037 98.9964 30.5037C98.8364 31.277 98.7564 32.277 98.7564 33.5037C98.7564 34.7303 98.8364 35.7437 98.9964 36.5437C99.1564 37.317 99.4098 37.9437 99.7564 38.4237C100.103 38.877 100.516 39.197 100.996 39.3837C101.503 39.5437 102.103 39.6237 102.796 39.6237C103.463 39.6237 104.05 39.5303 104.556 39.3437C105.063 39.157 105.49 38.837 105.836 38.3837C106.183 37.9037 106.436 37.277 106.596 36.5037C106.756 35.7037 106.836 34.6903 106.836 33.4637ZM139.078 33.4637C139.078 35.1437 138.865 36.677 138.438 38.0637C138.038 39.4503 137.385 40.6503 136.478 41.6637C135.598 42.677 134.438 43.4637 132.998 44.0237C131.558 44.5837 129.798 44.8637 127.718 44.8637C125.638 44.8637 123.878 44.5837 122.438 44.0237C121.025 43.4637 119.865 42.6903 118.958 41.7037C118.052 40.6903 117.398 39.4903 116.998 38.1037C116.598 36.717 116.398 35.1837 116.398 33.5037C116.398 31.8237 116.598 30.2903 116.998 28.9037C117.398 27.517 118.052 26.3303 118.958 25.3437C119.865 24.3303 121.025 23.5437 122.438 22.9837C123.878 22.4237 125.638 22.1437 127.718 22.1437C129.798 22.1437 131.558 22.4237 132.998 22.9837C134.438 23.517 135.598 24.2903 136.478 25.3037C137.385 26.2903 138.038 27.477 138.438 28.8637C138.865 30.2503 139.078 31.7837 139.078 33.4637ZM131.758 33.4637C131.758 32.237 131.678 31.237 131.518 30.4637C131.358 29.6903 131.105 29.077 130.758 28.6237C130.412 28.1703 129.985 27.8637 129.478 27.7037C128.972 27.517 128.385 27.4237 127.718 27.4237C127.025 27.4237 126.425 27.517 125.918 27.7037C125.438 27.8637 125.025 28.1703 124.678 28.6237C124.332 29.077 124.078 29.7037 123.918 30.5037C123.758 31.277 123.678 32.277 123.678 33.5037C123.678 34.7303 123.758 35.7437 123.918 36.5437C124.078 37.317 124.332 37.9437 124.678 38.4237C125.025 38.877 125.438 39.197 125.918 39.3837C126.425 39.5437 127.025 39.6237 127.718 39.6237C128.385 39.6237 128.972 39.5303 129.478 39.3437C129.985 39.157 130.412 38.837 130.758 38.3837C131.105 37.9037 131.358 37.277 131.518 36.5037C131.678 35.7037 131.758 34.6903 131.758 33.4637ZM164.12 33.3837C164.12 35.1437 163.894 36.7303 163.44 38.1437C162.987 39.557 162.307 40.7703 161.4 41.7837C160.494 42.7703 159.334 43.5303 157.92 44.0637C156.534 44.597 154.907 44.8637 153.04 44.8637C152.48 44.8637 151.854 44.797 151.16 44.6637C150.494 44.557 149.827 44.3437 149.16 44.0237C149.32 44.397 149.427 44.6637 149.48 44.8237C149.56 44.9837 149.6 45.1703 149.6 45.3837V53.9837H142.36V22.7837H147.76L148.36 24.3037C149.187 23.557 150.08 23.0103 151.04 22.6637C152 22.317 152.987 22.1437 154 22.1437C155.467 22.1437 156.814 22.3703 158.04 22.8237C159.294 23.277 160.374 23.9703 161.28 24.9037C162.187 25.837 162.88 27.0103 163.36 28.4237C163.867 29.8103 164.12 31.4637 164.12 33.3837ZM156.88 33.3837C156.88 31.2503 156.56 29.6503 155.92 28.5837C155.307 27.517 154.267 26.9837 152.8 26.9837C152.347 26.9837 151.854 27.077 151.32 27.2637C150.814 27.4237 150.24 27.6903 149.6 28.0637V39.3837C150.214 39.677 150.76 39.8637 151.24 39.9437C151.72 39.997 152.2 40.0237 152.68 40.0237C154.174 40.0237 155.24 39.4903 155.88 38.4237C156.547 37.357 156.88 35.677 156.88 33.3837ZM186.199 37.3437C186.199 38.6237 185.946 39.7303 185.439 40.6637C184.959 41.597 184.279 42.3837 183.399 43.0237C182.519 43.637 181.466 44.0903 180.239 44.3837C179.013 44.7037 177.666 44.8637 176.199 44.8637C173.479 44.8637 171.319 44.3837 169.719 43.4237C168.119 42.4637 166.946 41.2237 166.199 39.7037L171.279 37.7837C171.839 38.637 172.506 39.237 173.279 39.5837C174.079 39.9303 175.053 40.1037 176.199 40.1037C176.573 40.1037 176.946 40.077 177.319 40.0237C177.693 39.9703 178.026 39.877 178.319 39.7437C178.613 39.6103 178.853 39.4103 179.039 39.1437C179.226 38.877 179.319 38.5437 179.319 38.1437C179.319 37.717 179.226 37.357 179.039 37.0637C178.853 36.7437 178.413 36.517 177.719 36.3837L172.599 35.5437C171.773 35.4103 170.999 35.1837 170.279 34.8637C169.559 34.5437 168.919 34.117 168.359 33.5837C167.826 33.0237 167.399 32.3437 167.079 31.5437C166.786 30.7437 166.639 29.8103 166.639 28.7437C166.639 27.5437 166.893 26.5303 167.399 25.7037C167.933 24.8503 168.639 24.1703 169.519 23.6637C170.399 23.1303 171.426 22.7437 172.599 22.5037C173.773 22.2637 175.013 22.1437 176.319 22.1437C178.586 22.1437 180.479 22.517 181.999 23.2637C183.519 24.0103 184.746 25.0637 185.679 26.4237L180.959 28.9037C180.426 28.2903 179.786 27.8103 179.039 27.4637C178.293 27.117 177.386 26.9437 176.319 26.9437C175.599 26.9437 174.946 27.0503 174.359 27.2637C173.799 27.477 173.519 27.9303 173.519 28.6237C173.519 29.4503 173.959 29.9437 174.839 30.1037L179.359 30.8637C180.399 31.0237 181.333 31.2637 182.159 31.5837C183.013 31.877 183.733 32.277 184.319 32.7837C184.933 33.2903 185.399 33.917 185.719 34.6637C186.039 35.4103 186.199 36.3037 186.199 37.3437ZM195.552 35.1837H190.232L189.312 27.9037V13.1037H196.392V27.9437L195.552 35.1837ZM196.432 43.8237C196.432 44.117 196.299 44.2637 196.032 44.2637H189.712C189.446 44.2637 189.312 44.117 189.312 43.8237V37.6237C189.312 37.4103 189.339 37.277 189.392 37.2237C189.446 37.1703 189.552 37.1437 189.712 37.1437H196.032C196.192 37.1437 196.299 37.1703 196.352 37.2237C196.406 37.277 196.432 37.4103 196.432 37.6237V43.8237Z" fill="white"/>
</svg>
