<svg width="550" height="582" viewBox="0 0 550 582" fill="none" xmlns="http://www.w3.org/2000/svg">
<path d="M0 306.735L77.9269 201.032H122.014V306.735H136.821V332.027H122.014V367.98H77.911V332.027H0V306.735ZM77.911 306.735V254.598L41.4974 306.735H77.911Z" fill="#75D1F9"/>
<path d="M412.306 306.735L490.217 201.032H534.304V306.735H550V332.027H534.304V367.98H490.217V332.027H412.306V306.735ZM490.217 306.735V254.598L453.803 306.735H490.217Z" fill="#75D1F9"/>
<path d="M276.81 452.269C361.76 451.124 429.695 381.298 428.546 296.309C427.397 211.32 357.599 143.352 272.649 144.497C187.698 145.643 119.763 215.468 120.912 300.457C122.061 385.446 191.859 453.415 276.81 452.269Z" fill="#75D1F9"/>
<path d="M346.309 337.345C373.651 316.867 400.675 324.011 415.387 330.836C416.896 320.09 428.78 189.94 276.056 189.94C276.024 189.94 276.008 189.94 275.977 189.94C275.945 189.94 275.929 189.94 275.897 189.94C124.953 189.94 135.041 320.09 136.55 330.836C151.262 324.011 178.286 316.867 205.628 337.345C233.129 357.949 232.366 388.665 229.03 406.301C244.17 409.015 260.073 410.253 275.897 410.332C275.929 410.332 275.945 410.332 275.977 410.332C276.008 410.332 276.024 410.332 276.056 410.332C291.864 410.253 307.783 409.015 322.923 406.301C319.587 388.665 318.809 357.933 346.309 337.345ZM276.183 324.614C273.037 324.614 267.842 319.995 267.254 315.756C266.476 310.756 273.037 310.359 276.707 310.169C292.309 310.137 281.331 324.614 276.183 324.614Z" fill="white"/>
<path d="M276.69 310.168C273.02 310.359 266.474 310.739 267.237 315.756C267.809 319.994 273.02 324.613 276.166 324.613C281.329 324.613 292.307 310.136 276.69 310.168Z" fill="#333333"/>
<path d="M205.627 337.345C178.286 316.867 151.261 324.011 136.55 330.836C142.841 375.585 182.241 397.935 229.029 406.301C232.366 388.665 233.128 357.933 205.627 337.345Z" fill="white"/>
<path d="M415.386 330.836C400.675 324.011 373.651 316.867 346.309 337.345C318.808 357.949 319.57 388.665 322.907 406.301C369.695 397.919 409.111 375.569 415.386 330.836Z" fill="white"/>
<path d="M173.68 203.433C164.147 207.656 163.671 220.815 172.298 226.307L190.886 212.259C187.2 202.084 178.43 201.401 173.68 203.433Z" fill="#FFC1C2"/>
<path d="M162.812 180.654C135.565 192.718 134.199 230.339 158.872 246.022L211.999 205.861C201.466 176.812 176.396 174.875 162.812 180.654ZM172.297 226.291C163.67 220.798 164.146 207.639 173.679 203.417C178.429 201.401 187.199 202.067 190.885 212.227L172.297 226.291Z" fill="#333333"/>
<path d="M378.385 203.433C373.635 201.417 364.866 202.083 361.18 212.243L379.768 226.291C388.394 220.814 387.918 207.655 378.385 203.433Z" fill="#FFC1C2"/>
<path d="M389.254 180.654C375.67 174.876 350.6 176.812 340.083 205.846L393.194 246.006C417.867 230.339 416.485 192.734 389.254 180.654ZM379.769 226.291L361.181 212.243C364.867 202.084 373.637 201.401 378.387 203.433C387.919 207.655 388.396 220.815 379.769 226.291Z" fill="#333333"/>
<path d="M252.242 377.219C254.705 385.902 264.396 392.394 275.978 392.394C283.794 392.394 290.737 389.442 295.185 384.87C283.731 375.425 264.491 371.838 252.242 377.219Z" fill="#FF7979"/>
<path d="M415.386 330.836C400.675 324.011 373.651 316.867 346.309 337.345C318.808 357.949 319.57 388.665 322.907 406.301C369.695 397.919 409.111 375.569 415.386 330.836Z" fill="#FFDBDB"/>
<path d="M300.315 372.886C300.315 362.108 289.417 353.377 275.976 353.377C262.535 353.377 251.637 362.108 251.637 372.886C251.637 374.378 251.859 375.823 252.24 377.219C264.505 371.838 283.745 375.426 295.184 384.871C298.393 381.569 300.315 377.41 300.315 372.886Z" fill="#333333"/>
<path d="M205.627 337.345C178.286 316.867 151.261 324.011 136.55 330.836C142.841 375.585 182.241 397.935 229.029 406.301C232.366 388.665 233.128 357.933 205.627 337.345Z" fill="#FFDBDB"/>
<path d="M255.291 271.817C264.665 284.929 254.989 307.882 233.685 323.074C212.38 338.265 187.516 339.963 178.143 326.851C168.785 313.74 178.445 290.786 199.765 275.595C221.07 260.404 245.934 258.705 255.291 271.817Z" fill="#333333"/>
<path d="M296.646 271.817C287.273 284.929 296.948 307.882 318.253 323.074C339.557 338.265 364.421 339.963 373.794 326.851C383.168 313.74 373.493 290.786 352.188 275.595C330.867 260.404 306.004 258.705 296.646 271.817Z" fill="#333333"/>
<path d="M322.685 289.39C317.648 289.39 313.565 293.469 313.565 298.517C313.565 303.549 317.648 307.645 322.685 307.645C327.721 307.645 331.82 303.565 331.82 298.517C331.82 293.485 327.721 289.39 322.685 289.39ZM322.685 300.93C321.35 300.93 320.27 299.851 320.27 298.517C320.27 297.184 321.35 296.104 322.685 296.104C324.019 296.104 325.1 297.184 325.1 298.517C325.1 299.851 324.019 300.93 322.685 300.93Z" fill="white"/>
<path d="M229.252 289.39C224.216 289.39 220.117 293.469 220.117 298.517C220.117 303.549 224.2 307.645 229.252 307.645C234.289 307.645 238.372 303.565 238.372 298.517C238.387 293.485 234.304 289.39 229.252 289.39ZM229.252 300.93C227.918 300.93 226.837 299.851 226.837 298.517C226.837 297.184 227.918 296.104 229.252 296.104C230.587 296.104 231.667 297.184 231.667 298.517C231.667 299.851 230.587 300.93 229.252 300.93Z" fill="white"/>
<path d="M384.931 185.813C395.528 188.718 403.487 199.163 403.471 209.751C403.471 215.593 397.974 218.498 390.984 202.576C385.757 190.671 371.967 190.877 373.683 187.623C375.049 185.004 381.007 184.734 384.931 185.813Z" fill="#4D4D4D"/>
<path d="M167.133 185.813C156.537 188.718 148.577 199.163 148.577 209.751C148.577 215.593 154.074 218.498 161.065 202.576C166.291 190.671 180.082 190.877 178.366 187.623C176.999 185.004 171.042 184.734 167.133 185.813Z" fill="#4D4D4D"/>
<path d="M275.467 178.035C283.093 113.984 357.175 127.382 413.702 126.223C459.394 125.286 483.797 120.429 480.619 71.2676C479.507 53.9334 495.108 -7.22837 402.946 0.930769C310.785 9.08991 213.618 -1.56142 154.931 0.200574C96.2435 1.96257 75.0181 14.2013 73.906 67.2039C72.7939 120.207 80.8329 130.001 166.735 125.302C278.534 119.191 275.467 178.035 275.467 178.035Z" fill="#333333"/>
<path d="M184.76 59.48C184.76 63.5867 184.387 67.5067 183.64 71.24C182.947 74.92 181.613 78.1733 179.64 81C177.667 83.7733 174.973 86.0133 171.56 87.72C168.147 89.3733 163.72 90.2 158.28 90.2C152.84 90.2 148.413 89.3733 145 87.72C141.587 86.0133 138.893 83.7467 136.92 80.92C135 78.0933 133.667 74.84 132.92 71.16C132.227 67.4267 131.88 63.5333 131.88 59.48C131.88 55.8 132.227 52.2 132.92 48.68C133.667 45.16 135 42.0133 136.92 39.24C138.893 36.4667 141.587 34.2533 145 32.6C148.467 30.8933 152.893 30.04 158.28 30.04C163.667 30.04 168.067 30.8933 171.48 32.6C174.947 34.2533 177.64 36.4667 179.56 39.24C181.533 42.0133 182.893 45.16 183.64 48.68C184.387 52.2 184.76 55.8 184.76 59.48ZM170.04 59.48C170.04 56.3333 169.827 53.6667 169.4 51.48C169.027 49.24 168.36 47.4267 167.4 46.04C166.493 44.6533 165.293 43.64 163.8 43C162.307 42.36 160.467 42.04 158.28 42.04C156.093 42.04 154.253 42.36 152.76 43C151.267 43.5867 150.067 44.5733 149.16 45.96C148.253 47.3467 147.613 49.16 147.24 51.4C146.867 53.5867 146.68 56.28 146.68 59.48C146.68 63.0533 146.867 66.04 147.24 68.44C147.667 70.84 148.333 72.7867 149.24 74.28C150.147 75.72 151.32 76.76 152.76 77.4C154.253 77.9867 156.093 78.28 158.28 78.28C160.467 78.28 162.307 77.96 163.8 77.32C165.293 76.68 166.493 75.64 167.4 74.2C168.36 72.7067 169.027 70.76 169.4 68.36C169.827 65.96 170.04 63 170.04 59.48ZM235.35 67.4C235.35 70.76 234.923 73.8267 234.07 76.6C233.27 79.3733 231.963 81.7733 230.15 83.8C228.39 85.8267 226.07 87.4 223.19 88.52C220.31 89.64 216.79 90.2 212.63 90.2C208.47 90.2 204.95 89.64 202.07 88.52C199.243 87.4 196.923 85.8533 195.11 83.88C193.297 81.8533 191.99 79.4533 191.19 76.68C190.39 73.9067 189.99 70.84 189.99 67.48C189.99 64.12 190.39 61.0533 191.19 58.28C191.99 55.5067 193.297 53.1333 195.11 51.16C196.923 49.1333 199.243 47.56 202.07 46.44C204.95 45.32 208.47 44.76 212.63 44.76C216.79 44.76 220.31 45.32 223.19 46.44C226.07 47.5067 228.39 49.0533 230.15 51.08C231.963 53.0533 233.27 55.4267 234.07 58.2C234.923 60.9733 235.35 64.04 235.35 67.4ZM220.71 67.4C220.71 64.9467 220.55 62.9467 220.23 61.4C219.91 59.8533 219.403 58.6267 218.71 57.72C218.017 56.8133 217.163 56.2 216.15 55.88C215.137 55.5067 213.963 55.32 212.63 55.32C211.243 55.32 210.043 55.5067 209.03 55.88C208.07 56.2 207.243 56.8133 206.55 57.72C205.857 58.6267 205.35 59.88 205.03 61.48C204.71 63.0267 204.55 65.0267 204.55 67.48C204.55 69.9333 204.71 71.96 205.03 73.56C205.35 75.1067 205.857 76.36 206.55 77.32C207.243 78.2267 208.07 78.8667 209.03 79.24C210.043 79.56 211.243 79.72 212.63 79.72C213.963 79.72 215.137 79.5333 216.15 79.16C217.163 78.7867 218.017 78.1467 218.71 77.24C219.403 76.28 219.91 75.0267 220.23 73.48C220.55 71.88 220.71 69.8533 220.71 67.4ZM285.194 67.4C285.194 70.76 284.767 73.8267 283.914 76.6C283.114 79.3733 281.807 81.7733 279.994 83.8C278.234 85.8267 275.914 87.4 273.034 88.52C270.154 89.64 266.634 90.2 262.474 90.2C258.314 90.2 254.794 89.64 251.914 88.52C249.087 87.4 246.767 85.8533 244.954 83.88C243.14 81.8533 241.834 79.4533 241.034 76.68C240.234 73.9067 239.834 70.84 239.834 67.48C239.834 64.12 240.234 61.0533 241.034 58.28C241.834 55.5067 243.14 53.1333 244.954 51.16C246.767 49.1333 249.087 47.56 251.914 46.44C254.794 45.32 258.314 44.76 262.474 44.76C266.634 44.76 270.154 45.32 273.034 46.44C275.914 47.5067 278.234 49.0533 279.994 51.08C281.807 53.0533 283.114 55.4267 283.914 58.2C284.767 60.9733 285.194 64.04 285.194 67.4ZM270.554 67.4C270.554 64.9467 270.394 62.9467 270.074 61.4C269.754 59.8533 269.247 58.6267 268.554 57.72C267.86 56.8133 267.007 56.2 265.994 55.88C264.98 55.5067 263.807 55.32 262.474 55.32C261.087 55.32 259.887 55.5067 258.874 55.88C257.914 56.2 257.087 56.8133 256.394 57.72C255.7 58.6267 255.194 59.88 254.874 61.48C254.554 63.0267 254.394 65.0267 254.394 67.48C254.394 69.9333 254.554 71.96 254.874 73.56C255.194 75.1067 255.7 76.36 256.394 77.32C257.087 78.2267 257.914 78.8667 258.874 79.24C259.887 79.56 261.087 79.72 262.474 79.72C263.807 79.72 264.98 79.5333 265.994 79.16C267.007 78.7867 267.86 78.1467 268.554 77.24C269.247 76.28 269.754 75.0267 270.074 73.48C270.394 71.88 270.554 69.8533 270.554 67.4ZM335.278 67.24C335.278 70.76 334.824 73.9333 333.918 76.76C333.011 79.5867 331.651 82.0133 329.838 84.04C328.024 86.0133 325.704 87.5333 322.878 88.6C320.104 89.6667 316.851 90.2 313.118 90.2C311.998 90.2 310.744 90.0667 309.358 89.8C308.024 89.5867 306.691 89.16 305.358 88.52C305.678 89.2667 305.891 89.8 305.998 90.12C306.158 90.44 306.238 90.8133 306.238 91.24V108.44H291.758V46.04H302.558L303.758 49.08C305.411 47.5867 307.198 46.4933 309.118 45.8C311.038 45.1067 313.011 44.76 315.038 44.76C317.971 44.76 320.664 45.2133 323.118 46.12C325.624 47.0267 327.784 48.4133 329.598 50.28C331.411 52.1467 332.798 54.4933 333.758 57.32C334.771 60.0933 335.278 63.4 335.278 67.24ZM320.798 67.24C320.798 62.9733 320.158 59.7733 318.878 57.64C317.651 55.5067 315.571 54.44 312.638 54.44C311.731 54.44 310.744 54.6267 309.678 55C308.664 55.32 307.518 55.8533 306.238 56.6V79.24C307.464 79.8267 308.558 80.2 309.518 80.36C310.478 80.4667 311.438 80.52 312.398 80.52C315.384 80.52 317.518 79.4533 318.798 77.32C320.131 75.1867 320.798 71.8267 320.798 67.24ZM379.436 75.16C379.436 77.72 378.929 79.9333 377.916 81.8C376.956 83.6667 375.596 85.24 373.836 86.52C372.076 87.7467 369.969 88.6533 367.516 89.24C365.062 89.88 362.369 90.2 359.436 90.2C353.996 90.2 349.676 89.24 346.476 87.32C343.276 85.4 340.929 82.92 339.436 79.88L349.596 76.04C350.716 77.7467 352.049 78.9467 353.596 79.64C355.196 80.3333 357.142 80.68 359.436 80.68C360.182 80.68 360.929 80.6267 361.676 80.52C362.422 80.4133 363.089 80.2267 363.676 79.96C364.262 79.6933 364.742 79.2933 365.116 78.76C365.489 78.2267 365.676 77.56 365.676 76.76C365.676 75.9067 365.489 75.1867 365.116 74.6C364.742 73.96 363.862 73.5067 362.476 73.24L352.236 71.56C350.582 71.2933 349.036 70.84 347.596 70.2C346.156 69.56 344.876 68.7067 343.756 67.64C342.689 66.52 341.836 65.16 341.196 63.56C340.609 61.96 340.316 60.0933 340.316 57.96C340.316 55.56 340.822 53.5333 341.836 51.88C342.902 50.1733 344.316 48.8133 346.076 47.8C347.836 46.7333 349.889 45.96 352.236 45.48C354.582 45 357.062 44.76 359.676 44.76C364.209 44.76 367.996 45.5067 371.036 47C374.076 48.4933 376.529 50.6 378.396 53.32L368.956 58.28C367.889 57.0533 366.609 56.0933 365.116 55.4C363.622 54.7067 361.809 54.36 359.676 54.36C358.236 54.36 356.929 54.5733 355.756 55C354.636 55.4267 354.076 56.3333 354.076 57.72C354.076 59.3733 354.956 60.36 356.716 60.68L365.756 62.2C367.836 62.52 369.702 63 371.356 63.64C373.062 64.2267 374.502 65.0267 375.676 66.04C376.902 67.0533 377.836 68.3067 378.476 69.8C379.116 71.2933 379.436 73.08 379.436 75.16ZM398.142 70.84H387.502L385.662 56.28V26.68H399.822V56.36L398.142 70.84ZM399.902 88.12C399.902 88.7067 399.635 89 399.102 89H386.462C385.929 89 385.662 88.7067 385.662 88.12V75.72C385.662 75.2933 385.715 75.0267 385.822 74.92C385.929 74.8133 386.142 74.76 386.462 74.76H399.102C399.422 74.76 399.635 74.8133 399.742 74.92C399.849 75.0267 399.902 75.2933 399.902 75.72V88.12Z" fill="white"/>
</svg>
