<svg width="622" height="226" viewBox="0 0 622 226" fill="none" xmlns="http://www.w3.org/2000/svg">
<path d="M619.378 77.3055C619.268 78.677 618.909 80.1961 619.287 81.361C621.603 88.5681 620.83 96.2758 619.251 104.034C617.149 112.969 614.519 121.849 612.35 130.788C611.405 134.721 611.089 138.702 610.408 142.662C610.191 143.776 609.869 144.941 609.456 146.023C608.572 148.411 604.415 150.519 607.717 153.395C607.809 153.477 606.381 155.327 605.732 156.424C604.802 157.979 601.472 159.199 604.096 161.544C604.158 161.584 602.727 163.786 601.737 164.641C583.327 180.226 562.945 185.634 541.818 186.995C537.89 187.24 534.036 188.36 530.111 186.976C527.828 186.15 523.739 188.254 520.948 190.056C518.014 191.956 516.256 191.537 514.656 189.612C512.289 186.722 510.432 187.894 507.64 190.666C505.852 192.45 502.852 193.385 500.354 193.981C492.938 195.676 485.578 195.87 478.212 200.907C473.325 204.249 467.15 205.558 461.503 206.923C455.956 208.281 450.304 208.105 444.737 209.332C442.11 209.892 441.944 209.242 441.836 207.092C441.748 205.38 441.295 203.648 440.575 202.24C440.159 201.43 438.982 200.887 438.022 200.814C437.624 200.795 436.919 202.424 436.299 203.255C435.487 204.318 434.419 206.233 433.791 206.184C432.495 206.133 431.009 205.345 430.286 204.29C427.42 200.11 427.53 200.016 423.556 204.841C422.753 205.816 421.975 206.877 421.028 207.64C419.789 208.642 418.367 209.479 417.041 210.354C417.194 208.891 417.658 207.322 417.356 206.064C417.034 204.675 416.013 203.595 415.274 202.364C413.983 203.545 410.7 200.492 410.976 205.185C411.012 205.799 409.878 206.75 409.296 207.535C409.043 206.758 408.973 205.838 408.539 205.205L408.517 205.175C407.995 204.464 407.331 203.561 406.522 203.438C405.307 203.249 403.709 203.217 402.574 203.86C397.154 206.883 392.237 208.598 388.652 203.011C388.206 202.261 387.918 202.773 386.67 204.989L386.596 205.12C385.815 206.533 384.264 207.642 382.953 208.692C382.733 208.882 381.742 208.151 381.361 207.647C380.637 206.591 380.226 204.46 379.396 204.424C377.069 204.349 374.62 205.117 372.223 205.707C371.576 205.835 370.931 206.58 370.28 207.061C370.369 201.421 365.464 206.216 363.5 204.578C362.764 203.963 361.12 204.374 359.873 204.496C359.163 204.584 358.382 205.029 357.654 205.294C357.696 204.896 357.626 204.284 357.808 204.14C358.564 203.609 359.378 203.162 360.174 202.892C361.87 202.302 363.586 201.843 365.311 201.296C364.001 199.792 362.886 198.013 361.298 196.923C359.369 195.591 356.075 197.425 354.871 200.009C354.271 201.279 353.157 202.361 352.658 203.625C352.168 204.8 352.235 206.072 352.043 207.273C350.54 206.97 348.846 206.9 347.548 206.232C345.302 205.052 343.486 202.964 340.298 205.055C340.011 205.249 339.478 205.238 339.228 205.078C338.132 204.398 337.073 203.671 335.981 202.947C336.155 204.477 336.151 206.106 336.565 207.577C337.649 211.559 336.291 212.744 332.976 211.586C326.024 214.265 324.959 207.86 321.983 205.052C318.218 201.501 312.61 201.85 310.025 207.426C308.512 210.734 307.98 213.584 304.508 210.103C302.88 208.443 300.461 209.563 299.083 211.894C295.768 217.427 290.181 218.215 285.508 220.795C284.871 221.143 283.237 220.496 282.976 219.808C282.104 217.618 281.548 215.275 281.064 212.884C280.492 210.059 276.454 207.845 274.002 209.275C273.471 209.572 272.813 210.757 272.93 211.234C273.369 213.1 273.975 214.955 274.802 216.62C275.402 217.903 276.466 218.893 277.171 220.126C277.229 220.211 275.913 221.305 275.249 221.919C273.278 217.155 271.114 222.22 269.615 223.15C263.368 227.061 260.47 227.022 254.948 222.083C254.462 221.629 253.33 221.92 252.471 221.841C251.968 224.426 250.864 224.451 250.018 222.655C249.278 221.116 247.598 219.636 249.892 217.16C252.224 214.637 251.943 211.265 249.501 210.053C249.308 209.977 248.39 210.782 248.133 211.327C247.414 212.78 248.18 215.021 245.273 215.071C242.433 215.116 239.546 215.604 236.678 215.914C237.024 214.836 237.148 213.332 237.832 212.849C240.938 210.587 240.939 208.341 239.653 205.648C239.266 204.88 239.631 203.625 239.637 202.612C239.621 202.129 239.609 201.601 239.593 201.118C235.641 205.414 235.903 198.443 233.133 199.408C233.028 199.458 232.681 197.983 232.429 197.206C233.24 197.112 234.012 197.064 234.789 196.971C235.734 196.868 236.64 196.812 237.585 196.709C237.045 195.818 236.752 194.472 235.93 194.039C233.877 192.934 231.594 192.108 229.294 191.459C227.901 191.062 226.018 190.563 224.878 191.25C220.747 193.752 219.485 191.146 217.916 188.602C216.917 186.992 215.769 185.523 214.665 183.963C213.542 186.41 209.513 186.969 210.262 190.972C210.468 192.192 207.933 194.419 206.62 196.129C206.429 196.361 205.993 196.389 205.681 196.496C205.414 194.268 206.535 191.204 203.107 190.802C202.776 190.778 199.192 185.499 198.594 186.109C197.776 186.908 197.047 188.142 196.869 189.21C196.103 193.659 194.361 195 190.544 194.182C188.196 193.668 185.619 193.74 183.314 193.136C182.079 192.816 181.058 191.736 180.267 190.684C179.477 189.633 179.429 187.215 178.575 187.092C175.915 186.686 173.042 187.041 170.221 187.216C169.919 187.235 169.534 188.052 169.185 188.514C169.589 188.797 169.99 189.432 170.397 189.362C171.515 189.205 172.726 188.469 173.753 188.537C174.814 188.603 176.058 189.142 176.537 189.992C176.904 190.63 176.189 192.039 175.977 193.109C174.901 192.868 173.314 193.055 172.855 192.335C171.277 189.88 169.193 190.67 166.884 191.694C164.82 192.615 163.266 192.8 162.718 190.061C161.847 185.625 157.848 187.503 154.84 187.559C154.739 187.565 153.7 190.799 154.109 191.038C156.264 192.444 155.762 194.368 154.132 195.923C153.357 196.631 151.57 196.17 150.275 196.119C149.243 196.095 148.133 195.548 147.194 195.915C145.526 196.547 143.073 201.498 143.104 195.465C141.891 195.893 140.568 196.108 139.496 196.791C136.777 198.545 135.024 199.358 132.041 197.255C129.612 195.602 125.649 195.849 123.862 192.526C123.697 192.185 122.349 192.313 121.746 192.658C119.654 193.845 119.678 193.932 119.606 191.427C119.589 190.636 119.749 189.745 119.516 189.1C119.279 188.498 118.615 188.143 118.167 187.643C117.771 188.24 117.342 188.839 117.042 189.474C116.685 190.332 116.424 191.229 116.097 192.13C115.652 191.277 114.829 190.536 114.763 189.572C114.58 186.854 113.408 187.851 112.425 189.277C110.693 191.806 109.415 192.854 108.075 189.724C107.746 189.041 106.608 188.759 105.729 188.55C104.063 188.214 102.344 188.057 100.669 187.809C100.838 189.383 100.796 191.058 101.176 192.531C102.491 197.82 101.302 199.303 96.0898 199.055C93.3351 198.919 90.4866 199.36 87.6902 199.623C85.0328 199.832 82.1472 200.628 81.5383 196.881C81.5522 196.748 80.0226 197.019 80.018 197.063C79.506 201.321 77.9359 199.746 76.037 198.764C75.0516 198.297 73.4606 198.837 72.151 198.918C72.8793 199.929 73.574 200.943 74.374 201.905C74.5477 202.158 75.0943 202.036 75.3733 202.239L75.3734 202.239C76.2638 202.976 77.1542 203.713 77.9299 204.589C78.0214 204.671 77.1193 205.96 76.9896 205.924C75.9185 205.639 74.8996 205.174 73.9188 204.663C73.0632 204.232 72.3175 203.706 71.5047 203.185C71.1294 204.22 70.5863 205.267 70.4126 206.29C69.8012 205.756 59.4552 206.753 58.7107 206.535C57.7114 206.201 56.4504 206.456 55.4129 206.168C54.1207 205.764 52.9188 205.135 51.6741 204.596C52.8297 204.392 53.9807 204.232 55.112 203.942C55.596 203.78 56.3047 203.383 56.4807 202.976C56.6521 202.613 56.2515 201.978 55.9192 201.647C54.4892 200.327 48.006 201.391 47.442 203.275C46.5178 206.37 45.0971 204.962 44.0017 204.59C40.9414 203.548 45.4793 203.222 44.5368 202.664C43.094 201.785 41.121 200.236 39.9283 200.794C34.8704 203.222 36.7512 197.999 35.9928 196.637C34.6984 194.341 37.3812 194.526 39.0105 193.94C42.2643 192.813 43.9561 190.991 41.1714 187.951C39.8561 186.492 43.959 177.564 45.9437 177.089C46.1452 177.076 46.4752 178.068 46.5828 178.633C46.9452 180.592 47.2739 182.552 47.6363 184.511C48.1006 184.218 48.8961 183.948 49.0003 183.589C49.8874 180.849 53.9356 179.144 52.4779 175.537C51.8192 173.861 51.6247 171.892 51.1813 170.071C50.5087 167.252 50.4614 164.834 54.5049 164.449C55.0421 164.416 55.6246 163.631 56.2036 163.199C55.7659 162.918 55.3711 162.547 54.8905 162.357C51.5268 161.025 48.2732 159.599 44.1914 162.583C43.0763 163.357 41.2468 162.987 39.7785 162.99C38.8765 163.002 38.0451 162.658 37.1431 162.67C33.425 162.814 29.5842 163.493 26.0317 163.01C21.8887 162.432 24.4052 156.553 21.6633 154.699C21.1341 154.335 19.4413 154.573 19.0163 155.128C15.855 159.198 14.9298 159.432 13.8485 155.098C13.118 152.194 12.2148 151.898 9.64416 153.511C8.99802 153.947 7.83898 153.227 6.89297 153.022C7.6561 151.786 8.26294 149.811 9.20203 149.444C11.291 148.61 13.6241 148.949 15.6841 148.072C16.6568 147.703 17.2393 145.642 18.0071 144.362C17.1421 144.019 16.0642 143.162 15.4609 143.508C13.2249 144.792 11.0979 141.843 8.51444 145.173C7.1677 146.886 5.94619 144.849 6.94673 142.938C8.32323 140.264 7.59945 140.256 5.22107 140.23L5.19493 140.23C3.32837 140.214 1.71895 138.377 0.0643393 137.292C0.00644741 137.207 0.424511 136.081 0.745264 135.885C2.00974 135.278 3.40041 135.059 4.64057 134.365C5.59357 133.866 6.36711 132.849 7.21822 132.048C6.40189 131.879 5.53345 131.889 4.8364 131.536C3.82209 131.027 2.06211 129.992 2.19528 129.676C3.09394 127.463 4.19407 125.237 5.68903 123.383C6.45794 122.411 8.23303 122.344 9.38636 121.524C9.71174 121.284 9.82067 119.604 9.43047 119.188C7.75853 117.311 5.93837 115.576 4.00357 113.98C2.09771 112.426 2.98468 112.238 4.89295 111.855C8.4698 111.148 12.0316 110.266 15.6223 109.426C16.0971 109.352 16.5753 108.926 17.0733 108.631C16.7074 108.302 16.4272 107.791 16.0092 107.641C12.9871 106.553 9.88852 105.557 6.87104 104.425C3.84893 103.336 3.61279 101.766 7.00675 99.6181C7.75363 99.1753 8.3361 98.3907 9.00541 97.7327C8.32341 97.5551 7.60782 97.3796 6.96867 97.1113C6.23804 96.7606 5.55025 96.3193 4.82426 95.9243L6.91902 94.077C7.62191 93.4169 8.32017 92.8011 9.02306 92.141C6.11793 90.2531 7.74842 87.4223 8.57763 84.5973C9.09878 82.804 8.4586 79.6745 9.11401 79.1494C11.9962 77.4291 15.2442 76.0381 18.3706 75.4911C20.6818 75.083 22.9941 76.2595 25.3273 76.5983C26.249 76.717 28.0577 76.6483 28.1955 76.2876C28.8996 74.6589 29.3918 72.8235 29.3953 71.1945C29.3931 70.5783 27.9411 69.7884 27.039 69.8006C25.4029 69.8145 23.5514 69.9739 22.0333 70.7728C17.6563 73.0705 14.4652 70.4081 10.8166 69.8871C9.82775 69.7726 8.97563 67.7127 8.85527 66.3116C8.80526 65.5363 10.2581 64.2427 11.2161 63.3896L11.2674 63.344C14.4622 60.5477 17.804 59.8552 21.463 60.5957C25.2806 61.4142 28.8817 60.7937 31.2673 55.8468C32.3721 53.5769 38.3412 52.3246 40.3327 53.6971C40.5493 53.8597 40.2551 54.7585 40.1277 55.3387C39.8775 56.4548 39.5556 57.6194 39.2672 58.7819C40.2607 58.852 41.216 58.9686 42.2187 58.9501C42.7896 58.9145 43.3686 58.4823 43.9012 58.4931C44.5971 58.5378 45.2652 58.8483 45.9136 59.028C45.3404 59.724 44.846 60.9434 44.2276 61.114C38.6823 62.7802 41.3742 66.7063 40.9294 69.6834C40.8588 70.0399 42.5505 70.7709 43.4618 70.6701C45.9606 70.3823 48.1432 70.2463 48.1269 73.5929C48.8749 73.4582 49.9263 73.6128 50.3084 73.1488C56.0497 66.0999 57.5589 57.7301 59.9377 49.6582C60.1461 48.9409 59.764 48.1283 59.6413 47.3876C59.0811 43.8128 60.291 45.3222 62.3615 43.3883C66.6506 39.3793 71.8911 44.7754 75.2227 38.7571C75.2991 38.6643 76.3077 38.9096 76.8172 39.142C80.2874 40.7306 81.7186 39.805 83.81 35.7568C84.6866 34.0735 82.4717 30.6899 86.6217 30.5633C86.5186 29.9535 86.6021 29.1559 86.3172 28.6894C85.9791 28.0942 85.0713 27.8426 84.834 27.2411C82.5231 21.2663 82.3691 21.1439 75.8338 21.1109C74.6967 21.1377 73.5122 21.2996 72.4701 21.0564C71.2022 20.7392 69.1469 20.295 69.067 19.4636C68.9223 17.9759 69.9229 16.0647 70.6605 14.434C70.8319 14.0712 71.9736 14.0001 72.6638 13.781C72.6279 14.4435 72.6591 15.1019 72.556 15.7686C72.3823 16.7919 72.146 17.7751 71.9387 18.8004C73.5702 18.8308 75.2399 18.8148 76.8714 18.8452C76.8483 17.7902 76.6619 16.7013 76.8739 15.6316C77.0059 15.0071 77.7505 13.9482 78.2635 13.8282C79.5291 13.5292 80.8537 13.6228 82.1205 13.6319C86.5634 13.5751 91.0307 13.6049 95.4829 13.4595C96.2216 13.4135 97.0484 12.5256 97.8335 12.0364C97.2569 11.8082 96.6895 11.4914 96.1083 11.3076C94.2684 10.7179 92.3949 10.1303 90.555 9.54063C92.828 9.17889 95.1253 8.90367 97.4076 8.45331C97.9831 8.37343 98.5713 7.85255 99.1746 7.50681C98.6791 7.14151 98.1499 6.7783 97.6161 6.4594C96.9909 6.05816 96.3228 5.74763 95.6929 5.3907C96.4884 5.12103 97.2792 4.89566 98.0504 4.53946C98.8216 4.18327 100.029 3.79986 100.219 3.25978C102.061 -2.22544 105.248 0.78941 105.877 2.11486C107.381 5.27865 112.724 3.31696 112.678 7.8979C114.361 7.44089 116.616 7.56446 117.567 6.44873C121.705 1.65681 125.748 3.82597 129.803 3.96946C131.233 4.01241 132.716 4.1841 133.966 4.67851C135.152 5.13279 136.192 6.03645 137.098 6.94847C137.247 7.11524 136.433 8.83875 136.164 8.85549C134.826 8.89488 133.518 8.31604 132.161 8.53266C130.233 8.78487 128.235 9.39363 126.434 10.3422C126.113 10.5383 126.311 13.4313 127.001 14.4888C127.344 15.0397 129.776 14.7561 130.416 14.0559C133.059 11.118 135.033 11.6993 137.141 13.5488C137.753 14.083 138.877 14.4971 139.701 14.2697C143.785 13.1788 147.204 13.6701 150.522 15.7524C151.551 16.4366 154.06 14.7836 155.915 14.2718C156.844 13.9938 158.023 13.5682 158.725 13.8766C162.666 15.7439 162.595 15.7924 163.602 10.6233C164.031 8.4396 164.661 6.24334 165.387 4.08512C165.577 3.54504 166.588 3.12989 167.205 2.65122C167.37 3.30121 167.709 3.89643 167.702 4.60119C167.715 5.74485 167.557 6.94329 167.47 8.09323C168.576 7.40804 169.831 6.88962 170.821 6.03556C174.24 3.00517 182.199 5.06243 182.92 9.33148C182.935 9.50662 181.522 10.255 180.751 10.6112C179.769 11.0685 178.763 11.4394 177.757 11.8102C178.317 12.8318 178.553 14.4018 179.447 14.7863C181.61 15.7961 184.824 15.6838 182.269 20.025C181.949 20.5291 182.706 21.5824 182.959 22.3591C183.979 21.8553 185.728 21.3941 185.889 20.8118C186.82 17.0121 190.473 13.3509 188.054 9.3637C187.682 8.77058 188.786 6.19265 188.887 6.18637C191.113 6.26772 193.279 6.61701 195.453 6.87769C194.728 8.06739 194.066 9.29721 193.341 10.4869C192.859 11.2653 192.315 12.0035 191.8 12.784C192.497 13.1367 193.244 13.9706 193.929 13.7958C196.053 13.2673 199.238 14.3894 199.341 9.8929C199.353 9.14383 200.844 7.64224 201.664 7.45909C204.153 6.95187 206.662 6.88355 209.18 6.72661C209.886 6.68266 210.511 7.0839 211.13 7.22138C210.592 8.22338 210.199 9.74454 209.5 10.0522C208.278 10.5686 206.832 10.0424 205.581 10.5165C204.604 10.9296 203.774 12.1699 202.884 13.0177C203.731 13.5372 204.805 14.7468 205.337 14.4496C208.1 12.9128 208.97 14.7954 210.396 16.1593C213.791 19.4253 217.707 22.1747 216.2 28.6075C216.03 29.2784 217.376 30.1189 218.031 30.8704L219.39 28.4087C219.714 27.8602 219.913 27.2316 220.266 26.7253C220.973 25.7129 221.771 24.7827 222.54 23.8104C223.224 24.6041 223.875 25.4 224.631 26.1452C225.599 27.0974 226.672 27.9989 227.678 28.9047C227.985 27.5649 228.326 26.2231 228.599 24.8855C229.622 19.8915 226.148 19.9319 223.056 19.5082C222.331 19.4213 221.758 18.8408 221.128 18.4838C221.477 18.0219 221.944 17.0684 222.208 17.096C226.345 17.4104 229.217 12.9175 233.015 12.3286C234.405 12.1099 235.795 12.8597 237.116 13.3056C237.409 13.3754 237.57 14.0697 237.524 14.5128C237.441 15.6184 233.985 13.8969 235.98 16.1937C236.486 16.7785 240.507 18.2007 241.462 14.1794C241.939 12.1687 243.544 8.94326 239.939 8.63963C238.648 8.54401 237.263 9.02649 235.972 8.93086C235.176 8.89247 234.468 8.32027 233.704 7.97171C234.555 7.17032 235.466 5.79292 236.205 5.74689C241.367 5.51326 246.54 5.49908 251.664 5.61992C252.264 5.62657 252.643 6.79152 253.144 7.42059C252.382 7.68817 251.597 8.1773 250.858 8.22333C249.343 8.3618 247.811 8.01706 246.339 8.37289C245.586 8.55185 244.886 9.82808 244.135 10.6232C244.8 11.2861 245.429 12.6115 246.139 12.5233C247.764 12.2899 249.46 11.3919 251.122 10.8041C255.378 9.35036 257.607 11.3244 256.778 15.7341C256.614 16.6687 256.187 17.8839 256.52 18.5234C257.976 21.5142 256.838 22.8176 253.698 23.4975C252.777 23.6869 251.16 24.8002 251.1 25.3762C250.993 26.3953 251.898 27.3074 252.401 28.2445C253.205 27.5781 253.975 26.9139 254.774 26.2918C255.247 25.9101 255.725 25.4841 256.248 25.2755C261.883 22.4725 261.88 22.4595 260.493 16.2653L260.47 16.1643C260.036 14.2545 260.418 12.5139 263.154 12.8276C265.794 13.1033 268.494 14.0796 271.19 11.2703C271.458 10.9455 272.654 11.3112 273.183 11.6744C280.355 16.4659 288.361 15.835 296.677 10.9587C297.673 10.3684 300.004 8.81452 300.12 7.70679C300.747 0.756544 303.866 4.7441 306.285 4.90151C309.433 5.1015 312.682 5.29521 315.88 4.69973C319.419 4.03902 322.93 2.36757 326.472 1.35448C329.942 0.389879 328.731 3.67885 329.309 5.4917C329.677 6.4372 330.065 7.51354 330.815 7.99503C331.19 8.23577 332.429 7.23414 333.248 6.74292C334.497 5.96074 335.859 4.42321 336.996 4.39637C339.879 4.26072 343.105 5.95258 343.776 0.496284C344.928 0.64459 346.166 0.611475 347.266 0.939111C350.955 2.02984 354.563 3.25767 358.257 4.30409C358.775 4.44784 360.074 3.83871 360.254 3.38725C362.421 -2.33835 364.535 1.05153 365.516 2.83927C366.694 4.96684 367.761 4.01998 369.67 3.94501C373.393 3.75705 378.488 0.974421 380.647 6.16632C380.749 6.46811 382.605 6.26441 382.954 5.80248C385.47 2.47622 387.014 3.34849 389.539 5.03997C391.343 6.29219 394.679 5.33596 397.347 5.34579C400.778 5.39612 404.199 5.53506 407.644 5.45246C416.635 5.28835 425.342 7.21096 434.847 3.40514C437.842 2.20607 441.437 3.8749 444.801 3.92941C446.567 3.95144 448.46 3.39326 450.267 3.0165C450.776 2.9408 451.492 2.14779 451.776 2.3062C458.789 5.74295 467.308 3.7154 474.834 5.44748C480.76 6.839 487.194 6.87824 493.453 7.32463C494.648 7.38222 496.036 6.54736 497.311 6.15977C498.174 5.88591 499.823 5.431 499.842 5.56184C500.78 9.99348 504.4 6.64246 506.647 7.16271C509.581 7.81626 512.44 8.87068 515.469 9.25419C518.167 9.61431 521.121 9.1221 523.867 9.3472C530.481 9.9035 536.467 11.9956 540.621 16.9311C542.993 19.7767 545.497 19.7527 548.974 18.0834C550.416 17.3772 552.139 17.49 553.717 17.3916C557.953 17.0837 562.282 17.4742 566.409 16.2926C568.197 15.785 569.012 15.6461 570.626 16.1618C575.502 17.7069 580.796 16.8487 586.161 15.634C596.155 13.3437 605.452 15.0008 614.711 16.6512L615.531 16.7972C619.165 17.4511 619.011 21.1585 619.267 24.1359C619.572 27.5945 619.159 31.2299 619.397 34.6927C619.922 41.7912 621.2 48.7108 621.217 55.885C621.215 62.9285 620.023 70.178 619.378 77.3055Z" fill="#DFF5B0"/>
</svg>
