<svg width="52" height="23" viewBox="0 0 52 23" fill="none" xmlns="http://www.w3.org/2000/svg">
<path d="M6.39024 14.7973C8.9529 14.1795 11.8316 13.7268 13.9707 12.8304C17.229 11.4254 20.0175 8.45208 22.9089 8.35109C34.1706 8.13382 23.5321 11.3226 24.9269 12.7412C25.2493 13.0821 26.9035 13.083 27.7401 13.3473C30.037 13.9713 32.2327 14.6577 34.4285 15.344C33.3094 15.8526 32.1903 16.3612 31.0712 16.8698C32.6935 18.8674 34.3179 20.9236 35.9402 22.9212C39.8305 21.8462 46.2117 21.0364 47.0929 19.6557C49.9281 15.0961 42.4079 10.0764 51.346 5.59709C50.4082 5.39507 49.2514 4.84856 48.4274 4.93603C36.8113 6.80905 31.2636 2.01398 22.434 0.855072C17.5513 0.203918 10.8226 -0.0306037 6.72572 1.05157C3.34536 1.93263 2.112 5.02771 0.950442 7.23989C0.370712 8.37529 1.76553 9.79388 2.63564 10.996C3.71857 12.3668 5.20825 13.5473 6.39024 14.7973Z" fill="#DFF5B0"/>
</svg>
