<svg width="866" height="694" viewBox="0 0 866 694" fill="none" xmlns="http://www.w3.org/2000/svg">
<path fill-rule="evenodd" clip-rule="evenodd" d="M552.494 193.688C535.722 196.823 552.163 208.515 552.494 193.688V193.688Z" fill="#7AC7FF" fill-opacity="0.51"/>
<path fill-rule="evenodd" clip-rule="evenodd" d="M580.629 383.851C580.297 381.978 579.999 380.114 579.676 378.206C574.703 378.505 571.731 380.252 573.124 385.104C575.62 384.71 578.124 384.28 580.629 383.851Z" fill="#7AC7FF" fill-opacity="0.51"/>
<path fill-rule="evenodd" clip-rule="evenodd" d="M587.344 492.712C567.404 493.517 562.17 512.343 571.432 524.351C591.499 529.727 605.956 500.545 587.344 492.712Z" fill="#7AC7FF" fill-opacity="0.51"/>
<path fill-rule="evenodd" clip-rule="evenodd" d="M559.023 393.28C560.289 395.631 560.763 398.111 569.02 395.466C572.248 390.638 568.374 382.731 564.612 380.774C558.757 383.228 553.229 385.883 555.243 393.937C557.175 394.797 559.036 395.637 559.023 393.28Z" fill="#7AC7FF" fill-opacity="0.51"/>
<path fill-rule="evenodd" clip-rule="evenodd" d="M512.176 630.829C482.858 640.014 486.137 682.564 516.644 680.263C535.573 678.846 547.835 657.576 532.216 635.174C533.064 629.178 538.093 626.123 541.585 622.011C576.639 630.91 597.094 598.174 586.52 568.129C575.353 536.331 524.484 542.284 510.227 573.266C519.159 598.962 502.659 607.596 512.176 630.829Z" fill="#7AC7FF" fill-opacity="0.51"/>
<path fill-rule="evenodd" clip-rule="evenodd" d="M530.06 450.265C506.992 456.228 484.971 461.827 481.958 485.385C469.653 489.83 461.387 497.179 456.661 507.032C460.671 517.405 458.922 526.766 462.328 540.81C455.703 550.952 446.848 559.509 451.113 577.426C455.651 583.424 466.954 579.887 465.519 594.304C477.964 587.923 481.159 589.728 493.983 591.418C491.489 578.074 502.467 574.336 500.518 561.366C510.774 559.332 513.741 552.081 523.619 549.756C522.337 537.837 523.382 527.567 532.647 523.142C530.106 503.182 528.492 472.54 530.06 450.265Z" fill="#7AC7FF" fill-opacity="0.51"/>
<path fill-rule="evenodd" clip-rule="evenodd" d="M511.465 374.275C507.96 349.274 485.211 328.567 458.868 336.842C459.369 336.672 441.889 345.423 439.502 347.82C434.981 352.377 436.619 363.253 429.224 366.926C431.38 383.937 434.102 390.625 441.163 403.485C449.083 402.381 455.09 404.029 457.756 410.36C464.184 404.492 470.428 410.491 476.843 409.06C496.319 404.753 502.965 389.152 511.465 374.275Z" fill="#7AC7FF" fill-opacity="0.51"/>
<path fill-rule="evenodd" clip-rule="evenodd" d="M389.684 475.841C380.501 477.555 376.92 483.275 376.878 491.499C383.963 494.081 393.409 486.289 389.684 475.841Z" fill="#7AC7FF" fill-opacity="0.51"/>
<path fill-rule="evenodd" clip-rule="evenodd" d="M307.723 458.814C301.794 455.176 296.115 457.259 290.841 461.653C291.366 464.792 291.9 467.895 292.424 471.034C301.653 474.531 310.919 471.663 307.723 458.814Z" fill="#7AC7FF" fill-opacity="0.51"/>
<path fill-rule="evenodd" clip-rule="evenodd" d="M765.635 -142.053C766.416 -136.189 768.235 -131.793 771.574 -129.532C776.419 -125.387 781.798 -132.864 785.018 -129.876C786.902 -123.033 776.553 -124.896 777.224 -118.909C780.918 -118.678 788.09 -123.36 787.232 -116.759C781.666 -113.544 774.996 -111.157 771.6 -106.412C775.163 -103.712 780.227 -103.076 787.24 -105.182C788.209 -97.3315 774.046 -100.253 771.608 -94.8345C779.664 -82.429 770.618 -71.0383 767.601 -61.3342C769.956 -57.6669 776.154 -59.4219 776.689 -53.2063C771.299 -48.2368 755.142 -50.9342 759.815 -38.7897C760.519 -32.0734 769.235 -36.5694 769.201 -28.7984C765.406 -24.1224 760.245 -31.6156 755.136 -32.2256C747.779 -16.0939 764.95 -7.6976 772.375 1.54069C785.838 1.69443 792.374 -2.17112 798.345 6.82949C797.716 12.9989 788.2 12.8399 788.977 19.9932C789.447 24.7494 792.84 25.3929 795.869 26.5461C797.745 32.2861 791.656 32.3622 791.81 36.8819C795.578 44.7609 806.978 41.8569 812.768 46.862C810.734 51.4785 797.715 48.2556 798.711 55.0123C807.734 67.4874 802.569 89.5954 785.957 93.8351C781.675 104.718 794.562 102.631 796.628 111.344C787.165 113.818 783.374 108.286 775.049 109.205C766.631 115.564 771.774 130.909 773.823 136.43C752.96 137.139 735.689 140.861 740.111 165.272C731.054 169.487 733.496 157.541 725.713 159.972C706.876 169.119 712.786 195.902 697.03 207.279C706.514 237.145 697.292 253.726 690.564 272.038C692.993 275.573 695.649 278.827 698.078 282.362C681.953 294.551 680.924 317.501 663.429 328.715C658.368 327.359 655.894 322.294 649.031 323.415C658.908 340.066 657.266 348.886 656.614 368.446C647.471 364.63 632.776 367.942 637.868 383.196C631.028 385.083 631.682 376.415 623.803 379.769C607.236 404.932 630.472 448.313 603.612 466.164C595.808 463.58 585.594 464.183 577.021 468.717C573.63 461.129 567.89 456.782 557.926 458.439C539.647 437.753 545.833 403.622 579.086 400.843C573.119 384.747 594.811 359.287 572.737 340.165C565.174 347.437 556.874 346.845 549.6 351.765C550.48 341.829 543.17 327.916 547.668 317.356C530.713 302.49 559.926 290.014 561.367 272.601C562.19 262.878 554.744 254.848 556.951 246.331C562.27 225.63 588.414 215.406 613.195 225.272C610.523 214.575 620.375 212.774 619.109 203.061C607.505 203.898 599.615 199.507 594.084 191.839C596.595 178.925 588.172 176.668 596.849 162.408C591.976 157.801 587.974 150.087 584.944 160.546C584.269 158.392 584.377 155.157 582.118 155.235C578.943 159.015 570.762 159.251 565.857 161.846C564.914 153.472 582.037 157.946 578.96 148.051C573.677 146.673 571.889 155.189 571.158 147.441C575.537 143.414 579.406 139.024 575.829 129.299C583.909 123.494 594.703 119.593 591.12 105.502C595.412 101.376 604.217 100.51 606.752 95.1545C611.765 64.6943 607.73 35.3011 617.565 10.3455C612.811 7.13615 618.197 4.025 614.12 1.26262C620.706 -5.05626 637.102 -4.38227 629.743 -20.6619C617.507 -15.0598 616.844 -25.7502 607.831 -24.6736C615.615 -40.8426 603.666 -49.0538 597.466 -63.429C607.992 -68.3127 604.534 -82.4465 598.692 -90.6536C606.1 -91.9703 606.668 -98.1941 610.256 -102.242C610.29 -110.013 601.574 -105.517 600.835 -112.243C604.423 -116.291 612.798 -116.969 607.999 -126.946C619.22 -127.204 619.177 -142.472 616.117 -147.618C621.826 -151.933 624.587 -148.081 632.999 -150.457C632.667 -152.33 632.37 -154.193 632.046 -156.102C650.781 -158.634 649.659 -170.586 670.5 -168.379C670.662 -173.232 668.522 -179.687 674.226 -180.588C679.3 -179.988 675.187 -166.478 682.072 -168.391C701.364 -167.624 707.066 -176.305 719.563 -186.278C720.181 -179.243 712.447 -178.127 716.789 -168.424C732.174 -161.569 751.046 -168.581 760.228 -173.825C758.939 -167.036 749.141 -166.283 751.489 -156.925C757.409 -144.902 777.82 -156.663 784.308 -156.671C778.604 -151.52 769.138 -148.895 765.635 -142.053ZM670.397 175.018C672.783 180.553 665.859 179.495 668.245 185.03C674.07 186.933 678.713 190.416 684.838 191.905C686.031 186.039 681.093 171.622 670.397 175.018Z" fill="#7AC7FF" fill-opacity="0.51"/>
<path fill-rule="evenodd" clip-rule="evenodd" d="M94.8205 86.1124C69.8103 83.8858 45.9447 81.6813 40.1809 100.416C26.7009 100.283 17.1673 103.839 11.0963 110.591C14.1934 120.508 11.3196 127.779 13.376 140.573C5.26925 146.974 -5.01901 151.354 -2.48071 167.651C1.65298 174.078 13.9755 174.656 10.8792 186.248C24.7187 184.807 27.895 187.313 41.2494 192.732C40.0798 180.807 52.0808 181.115 51.4453 169.674C62.4969 171.179 66.4247 166.05 77.1099 167.195C77.0629 156.84 79.2926 148.588 89.5605 147.788C89.0658 130.323 90.7219 104.226 94.8205 86.1124Z" fill="#78C6FF" fill-opacity="0.47"/>
<path fill-rule="evenodd" clip-rule="evenodd" d="M406.01 571.168C406.063 541.807 360.037 551.487 362.239 574.696C364.453 598.288 405.946 600.146 406.01 571.168Z" fill="#7AC7FF" fill-opacity="0.51"/>
</svg>
