<svg width="754" height="700" viewBox="0 0 754 700" fill="none" xmlns="http://www.w3.org/2000/svg">
<path fill-rule="evenodd" clip-rule="evenodd" d="M91.1881 658.695C87.6831 633.695 64.9339 612.988 38.5918 621.262C39.0924 621.093 21.6125 629.844 19.2255 632.24C14.7042 636.797 16.342 647.673 8.94715 651.346C11.1032 668.357 13.8252 675.045 20.8866 687.905C28.8067 686.801 34.8138 688.449 37.4796 694.78C43.9073 688.912 50.1517 694.912 56.5665 693.481C76.0421 689.173 82.688 673.572 91.1881 658.695Z" fill="#86CBFD" fill-opacity="0.61"/>
<path fill-rule="evenodd" clip-rule="evenodd" d="M152.764 79.4186C134.266 83.0798 130.959 97.589 123.26 108.985C126.206 126.525 143.112 124.471 152.048 133.74C181.415 125.632 182.22 86.1493 152.764 79.4186Z" fill="#86CBFD" fill-opacity="0.61"/>
<path fill-rule="evenodd" clip-rule="evenodd" d="M297.764 47.4186C279.266 51.0798 275.959 65.589 268.26 76.985C271.206 94.5252 288.112 92.4709 297.048 101.74C326.415 93.6325 327.22 54.1493 297.764 47.4186Z" fill="#86CBFD" fill-opacity="0.61"/>
<path fill-rule="evenodd" clip-rule="evenodd" d="M218.01 190.168C218.063 160.807 172.037 170.487 174.239 193.696C176.453 217.288 217.946 219.146 218.01 190.168Z" fill="#86CBFD" fill-opacity="0.61"/>
<path fill-rule="evenodd" clip-rule="evenodd" d="M800.143 86.0328C839.488 -16.8004 656.218 -55.8148 633.422 29.0307C610.158 115.235 761.266 187.507 800.143 86.0328Z" fill="#6CC1FF" fill-opacity="0.59"/>
<path fill-rule="evenodd" clip-rule="evenodd" d="M647.289 277.37C621.919 283.162 617.033 304.345 606.224 321.111C609.805 346.543 632.959 343.128 644.935 356.381C685.27 343.848 687.37 286.412 647.289 277.37Z" fill="#86CBFD" fill-opacity="0.61"/>
<path fill-rule="evenodd" clip-rule="evenodd" d="M678.102 371.633C658.872 375.44 655.433 390.524 647.429 402.372C650.492 420.607 668.068 418.472 677.358 428.108C707.889 419.679 708.726 378.631 678.102 371.633Z" fill="#6CC1FF" fill-opacity="0.61"/>
<path fill-rule="evenodd" clip-rule="evenodd" d="M699.188 235.695C695.683 210.695 672.934 189.988 646.592 198.262C647.092 198.093 629.612 206.844 627.225 209.24C622.704 213.797 624.342 224.673 616.947 228.346C619.103 245.357 621.825 252.045 628.887 264.905C636.807 263.801 642.814 265.449 645.48 271.78C651.907 265.912 658.152 271.912 664.566 270.481C684.042 266.173 690.688 250.572 699.188 235.695Z" fill="#86CBFD" fill-opacity="0.61"/>
<path fill-rule="evenodd" clip-rule="evenodd" d="M749.406 462.159C647.658 489.629 646.898 579.192 711.419 621.21C822.436 620.939 856.342 474.499 749.406 462.159Z" fill="#6CC1FF" fill-opacity="0.59"/>
</svg>
