<svg width="640" height="694" viewBox="0 0 640 694" fill="none" xmlns="http://www.w3.org/2000/svg">
<path fill-rule="evenodd" clip-rule="evenodd" d="M70.1881 646.695C66.6831 621.695 43.9339 600.988 17.5918 609.262C18.0924 609.093 0.61246 617.844 -1.77458 620.24C-6.29581 624.797 -4.65802 635.673 -12.0529 639.346C-9.89687 656.357 -7.17489 663.045 -0.113457 675.905C7.80671 674.801 13.8138 676.449 16.4796 682.78C22.9073 676.912 29.1517 682.912 35.5665 681.481C55.042 677.173 61.6879 661.572 70.1881 646.695Z" fill="#86CBFD" fill-opacity="0.61"/>
<path fill-rule="evenodd" clip-rule="evenodd" d="M131.764 67.4186C113.266 71.0798 109.959 85.589 102.26 96.985C105.206 114.525 122.112 112.471 131.048 121.74C160.415 113.632 161.22 74.1493 131.764 67.4186Z" fill="#86CBFD" fill-opacity="0.61"/>
<path fill-rule="evenodd" clip-rule="evenodd" d="M276.764 35.4186C258.266 39.0798 254.959 53.589 247.26 64.985C250.206 82.5252 267.112 80.4709 276.048 89.74C305.415 81.6325 306.22 42.1493 276.764 35.4186Z" fill="#86CBFD" fill-opacity="0.61"/>
<path fill-rule="evenodd" clip-rule="evenodd" d="M267.572 185.212C264.675 120.411 147.609 137.021 155.656 188.478C163.771 240.781 270.401 249.169 267.572 185.212Z" fill="#86CBFD" fill-opacity="0.61"/>
<path fill-rule="evenodd" clip-rule="evenodd" d="M779.143 74.0328C818.488 -28.8004 635.218 -67.8148 612.422 17.0307C589.158 103.235 740.266 175.507 779.143 74.0328Z" fill="#6CC1FF" fill-opacity="0.59"/>
<path fill-rule="evenodd" clip-rule="evenodd" d="M626.289 265.37C600.919 271.162 596.033 292.345 585.224 309.111C588.805 334.543 611.959 331.128 623.935 344.381C664.27 331.848 666.37 274.412 626.289 265.37Z" fill="#86CBFD" fill-opacity="0.61"/>
<path fill-rule="evenodd" clip-rule="evenodd" d="M657.102 359.633C637.872 363.44 634.433 378.524 626.429 390.372C629.492 408.607 647.068 406.472 656.358 416.108C686.889 407.679 687.726 366.631 657.102 359.633Z" fill="#6CC1FF" fill-opacity="0.61"/>
<path fill-rule="evenodd" clip-rule="evenodd" d="M678.188 223.695C674.683 198.695 651.934 177.988 625.592 186.262C626.092 186.093 608.612 194.844 606.225 197.24C601.704 201.797 603.342 212.673 595.947 216.346C598.103 233.357 600.825 240.045 607.887 252.905C615.807 251.801 621.814 253.449 624.48 259.78C630.907 253.912 637.152 259.912 643.566 258.481C663.042 254.173 669.688 238.572 678.188 223.695Z" fill="#86CBFD" fill-opacity="0.61"/>
<path fill-rule="evenodd" clip-rule="evenodd" d="M728.406 450.159C626.658 477.629 625.898 567.192 690.419 609.21C801.436 608.939 835.342 462.499 728.406 450.159Z" fill="#6CC1FF" fill-opacity="0.59"/>
</svg>
