<svg width="136" height="154" viewBox="0 0 136 154" fill="none" xmlns="http://www.w3.org/2000/svg">
<path fill-rule="evenodd" clip-rule="evenodd" d="M114.821 29.1124C89.8103 26.8858 65.9447 24.6813 60.1809 43.4157C46.7009 43.2835 37.1673 46.8387 31.0963 53.5915C34.1934 63.5079 31.3196 70.7793 33.376 83.5731C25.2693 89.9737 14.981 94.354 17.5193 110.651C21.653 117.078 33.9755 117.656 30.8792 129.248C44.7187 127.807 47.895 130.313 61.2494 135.732C60.0798 123.807 72.0808 124.115 71.4453 112.674C82.4969 114.179 86.4247 109.05 97.1099 110.195C97.0629 99.8399 99.2926 91.5885 109.56 90.7879C109.066 73.3228 110.722 47.2264 114.821 29.1124Z" fill="#78C6FF" fill-opacity="0.47"/>
</svg>
