<svg width="412" height="530" viewBox="0 0 412 530" fill="none" xmlns="http://www.w3.org/2000/svg">
<path fill-rule="evenodd" clip-rule="evenodd" d="M311.635 -112.053C312.416 -106.189 314.235 -101.793 317.574 -99.5316C322.419 -95.387 327.798 -102.864 331.018 -99.8761C332.902 -93.0334 322.553 -94.8957 323.224 -88.9091C326.918 -88.6784 334.09 -93.3603 333.232 -86.759C327.666 -83.5442 320.996 -81.1569 317.6 -76.412C321.163 -73.7116 326.227 -73.0757 333.24 -75.1815C334.209 -67.3315 320.046 -70.2534 317.608 -64.8345C325.664 -52.429 316.618 -41.0383 313.601 -31.3342C315.956 -27.6669 322.154 -29.4218 322.689 -23.2063C317.299 -18.2368 301.142 -20.9342 305.815 -8.7897C306.519 -2.0734 315.235 -6.56943 315.201 1.20159C311.406 5.87763 306.245 -1.61559 301.136 -2.22556C293.779 13.9061 310.95 22.3024 318.375 31.5407C331.838 31.6944 338.374 27.8289 344.345 36.8295C343.716 42.9989 334.2 42.84 334.977 49.9932C335.447 54.7494 338.84 55.3929 341.869 56.5461C343.745 62.2861 337.656 62.3622 337.81 66.8819C341.578 74.7609 352.978 71.8569 358.768 76.862C356.734 81.4785 343.715 78.2556 344.711 85.0123C353.735 97.4874 348.569 119.595 331.957 123.835C327.675 134.719 340.563 132.631 342.628 141.344C333.165 143.818 329.374 138.286 321.049 139.205C312.631 145.564 317.774 160.909 319.823 166.43C298.96 167.139 281.689 170.861 286.111 195.272C277.054 199.487 279.496 187.541 271.713 189.972C252.876 199.119 258.786 225.902 243.03 237.279C252.514 267.145 243.292 283.726 236.564 302.038C238.993 305.573 241.649 308.827 244.078 312.362C227.953 324.551 226.924 347.501 209.429 358.715C204.368 357.359 201.894 352.294 195.031 353.415C204.908 370.066 203.266 378.886 202.614 398.446C193.471 394.63 178.776 397.942 183.868 413.196C177.028 415.083 177.682 406.415 169.803 409.769C153.236 434.932 176.472 478.313 149.612 496.164C141.808 493.58 131.594 494.183 123.021 498.717C119.63 491.129 113.89 486.782 103.926 488.439C85.6467 467.753 91.8332 433.622 125.086 430.843C119.119 414.747 140.811 389.287 118.737 370.165C111.174 377.437 102.874 376.845 95.6004 381.765C96.4798 371.829 89.1696 357.916 93.668 347.356C76.7127 332.49 105.926 320.014 107.367 302.601C108.19 292.878 100.744 284.848 102.951 276.331C108.27 255.63 134.414 245.406 159.195 255.272C156.523 244.575 166.375 242.774 165.109 233.061C153.505 233.898 145.615 229.507 140.084 221.839C142.595 208.925 134.172 206.668 142.849 192.408C137.976 187.801 133.974 180.087 130.944 190.546C130.269 188.392 130.377 185.157 128.118 185.235C124.943 189.015 116.762 189.251 111.857 191.846C110.914 183.472 128.037 187.946 124.96 178.051C119.677 176.673 117.889 185.189 117.158 177.441C121.537 173.414 125.407 169.024 121.829 159.299C129.909 153.494 140.703 149.593 137.12 135.502C141.412 131.376 150.217 130.51 152.752 125.154C157.765 94.6943 153.73 65.3011 163.565 40.3456C158.811 37.1362 164.197 34.025 160.12 31.2626C166.706 24.9437 183.102 25.6177 175.743 9.33808C163.507 14.9402 162.844 4.24983 153.831 5.32639C161.615 -10.8426 149.666 -19.0538 143.466 -33.429C153.992 -38.3127 150.534 -52.4465 144.692 -60.6536C152.1 -61.9703 152.668 -68.1941 156.256 -72.2423C156.29 -80.0133 147.574 -75.5173 146.835 -82.2431C150.423 -86.2912 158.798 -86.9694 153.999 -96.9463C165.22 -97.2035 165.177 -112.472 162.117 -117.618C167.826 -121.933 170.587 -118.081 178.999 -120.457C178.667 -122.33 178.37 -124.193 178.046 -126.102C196.781 -128.634 195.659 -140.586 216.5 -138.379C216.662 -143.232 214.522 -149.687 220.226 -150.588C225.3 -149.988 221.187 -136.478 228.072 -138.391C247.364 -137.624 253.066 -146.305 265.563 -156.278C266.181 -149.243 258.447 -148.127 262.789 -138.424C278.174 -131.569 297.046 -138.581 306.228 -143.825C304.939 -137.036 295.141 -136.283 297.489 -126.925C303.409 -114.902 323.82 -126.663 330.308 -126.671C324.604 -121.52 315.138 -118.895 311.635 -112.053ZM216.397 205.018C218.783 210.553 211.859 209.495 214.245 215.03C220.07 216.933 224.713 220.416 230.838 221.905C232.031 216.039 227.093 201.622 216.397 205.018Z" fill="#7AC7FF" fill-opacity="0.51"/>
</svg>
