<svg width="496" height="694" viewBox="0 0 496 694" fill="none" xmlns="http://www.w3.org/2000/svg">
<path fill-rule="evenodd" clip-rule="evenodd" d="M182.494 193.688C165.722 196.822 182.163 208.514 182.494 193.688V193.688Z" fill="#7AC7FF" fill-opacity="0.51"/>
<path fill-rule="evenodd" clip-rule="evenodd" d="M210.629 383.851C210.297 381.978 209.999 380.114 209.676 378.206C204.703 378.505 201.731 380.252 203.124 385.104C205.62 384.71 208.124 384.28 210.629 383.851Z" fill="#7AC7FF" fill-opacity="0.51"/>
<path fill-rule="evenodd" clip-rule="evenodd" d="M217.344 492.712C197.404 493.517 192.17 512.343 201.432 524.351C221.499 529.727 235.956 500.545 217.344 492.712Z" fill="#7AC7FF" fill-opacity="0.51"/>
<path fill-rule="evenodd" clip-rule="evenodd" d="M189.023 393.28C190.289 395.631 190.763 398.111 199.02 395.465C202.248 390.638 198.374 382.73 194.612 380.773C188.757 383.227 183.229 385.883 185.243 393.937C187.175 394.796 189.036 395.636 189.023 393.28Z" fill="#7AC7FF" fill-opacity="0.51"/>
<path fill-rule="evenodd" clip-rule="evenodd" d="M142.176 630.829C112.858 640.014 116.137 682.564 146.644 680.263C165.573 678.846 177.835 657.576 162.216 635.174C163.064 629.178 168.093 626.123 171.585 622.011C206.639 630.91 227.094 598.174 216.52 568.129C205.353 536.331 154.484 542.284 140.227 573.266C149.159 598.962 132.659 607.596 142.176 630.829Z" fill="#7AC7FF" fill-opacity="0.51"/>
<path fill-rule="evenodd" clip-rule="evenodd" d="M160.06 450.265C136.992 456.228 114.971 461.827 111.958 485.385C99.6531 489.83 91.3872 497.179 86.6607 507.032C90.6712 517.405 88.9216 526.766 92.3278 540.81C85.7033 550.952 76.848 559.509 81.1129 577.426C85.6509 583.424 96.9542 579.887 95.5189 594.304C107.964 587.923 111.159 589.728 123.983 591.418C121.489 578.074 132.467 574.336 130.518 561.366C140.774 559.332 143.741 552.081 153.619 549.756C152.337 537.837 153.382 527.567 162.647 523.142C160.106 503.182 158.492 472.54 160.06 450.265Z" fill="#7AC7FF" fill-opacity="0.51"/>
<path fill-rule="evenodd" clip-rule="evenodd" d="M141.465 374.275C137.96 349.274 115.211 328.567 88.8685 336.841C89.3691 336.672 71.8892 345.423 69.5021 347.819C64.9809 352.377 66.6187 363.252 59.2238 366.926C61.3798 383.936 64.1018 390.624 71.1633 403.484C79.0834 402.381 85.0905 404.028 87.7563 410.359C94.184 404.491 100.428 410.491 106.843 409.06C126.319 404.752 132.965 389.151 141.465 374.275Z" fill="#7AC7FF" fill-opacity="0.51"/>
<path fill-rule="evenodd" clip-rule="evenodd" d="M19.6845 475.842C10.5007 477.556 6.91972 483.276 6.87816 491.5C13.9626 494.081 23.4093 486.29 19.6845 475.842Z" fill="#7AC7FF" fill-opacity="0.51"/>
<path fill-rule="evenodd" clip-rule="evenodd" d="M395.635 -142.053C396.416 -136.189 398.235 -131.793 401.574 -129.532C406.419 -125.387 411.798 -132.864 415.018 -129.876C416.902 -123.033 406.553 -124.896 407.224 -118.909C410.918 -118.678 418.09 -123.36 417.232 -116.759C411.666 -113.544 404.996 -111.157 401.6 -106.412C405.163 -103.712 410.227 -103.076 417.24 -105.182C418.209 -97.3315 404.046 -100.253 401.608 -94.8345C409.664 -82.429 400.618 -71.0383 397.601 -61.3342C399.956 -57.6669 406.154 -59.4219 406.689 -53.2063C401.299 -48.2368 385.142 -50.9342 389.815 -38.7897C390.519 -32.0734 399.235 -36.5694 399.201 -28.7984C395.406 -24.1224 390.245 -31.6156 385.136 -32.2256C377.779 -16.0939 394.95 -7.6976 402.375 1.54069C415.838 1.69443 422.374 -2.17112 428.345 6.82949C427.716 12.9989 418.2 12.8399 418.977 19.9932C419.447 24.7494 422.84 25.3929 425.869 26.5461C427.745 32.2861 421.656 32.3622 421.81 36.8819C425.578 44.7609 436.978 41.8569 442.768 46.862C440.734 51.4785 427.715 48.2556 428.711 55.0123C437.734 67.4874 432.569 89.5954 415.957 93.8351C411.675 104.718 424.562 102.631 426.628 111.344C417.165 113.818 413.374 108.286 405.049 109.205C396.631 115.564 401.774 130.909 403.823 136.43C382.96 137.139 365.689 140.861 370.111 165.272C361.054 169.487 363.496 157.541 355.713 159.972C336.876 169.119 342.786 195.902 327.03 207.279C336.514 237.145 327.292 253.726 320.564 272.038C322.993 275.573 325.649 278.827 328.078 282.362C311.953 294.551 310.924 317.501 293.429 328.715C288.368 327.359 285.894 322.294 279.031 323.415C288.908 340.066 287.266 348.886 286.614 368.446C277.471 364.63 262.776 367.942 267.868 383.196C261.028 385.083 261.682 376.415 253.803 379.769C237.236 404.932 260.472 448.313 233.612 466.164C225.808 463.58 215.594 464.183 207.021 468.717C203.63 461.129 197.89 456.782 187.926 458.439C169.647 437.753 175.833 403.622 209.086 400.843C203.119 384.747 224.811 359.287 202.737 340.165C195.174 347.437 186.874 346.845 179.6 351.765C180.48 341.829 173.17 327.916 177.668 317.356C160.713 302.49 189.926 290.014 191.367 272.601C192.19 262.878 184.744 254.848 186.951 246.331C192.27 225.63 218.414 215.406 243.195 225.272C240.523 214.575 250.375 212.774 249.109 203.061C237.505 203.898 229.615 199.507 224.084 191.839C226.595 178.925 218.172 176.668 226.849 162.408C221.976 157.801 217.974 150.087 214.944 160.546C214.269 158.392 214.377 155.157 212.118 155.235C208.943 159.015 200.762 159.251 195.857 161.846C194.914 153.472 212.037 157.946 208.96 148.051C203.677 146.673 201.889 155.189 201.158 147.441C205.537 143.414 209.406 139.024 205.829 129.299C213.909 123.494 224.703 119.593 221.12 105.502C225.412 101.376 234.217 100.51 236.752 95.1545C241.765 64.6943 237.73 35.3011 247.565 10.3455C242.811 7.13615 248.197 4.025 244.12 1.26262C250.706 -5.05626 267.102 -4.38227 259.743 -20.6619C247.507 -15.0598 246.844 -25.7502 237.831 -24.6736C245.615 -40.8426 233.666 -49.0538 227.466 -63.429C237.992 -68.3127 234.534 -82.4465 228.692 -90.6536C236.1 -91.9703 236.668 -98.1941 240.256 -102.242C240.29 -110.013 231.574 -105.517 230.835 -112.243C234.423 -116.291 242.798 -116.969 237.999 -126.946C249.22 -127.204 249.177 -142.472 246.117 -147.618C251.826 -151.933 254.587 -148.081 262.999 -150.457C262.667 -152.33 262.37 -154.193 262.046 -156.102C280.781 -158.634 279.659 -170.586 300.5 -168.379C300.662 -173.232 298.522 -179.687 304.226 -180.588C309.3 -179.988 305.187 -166.478 312.072 -168.391C331.364 -167.624 337.066 -176.305 349.563 -186.278C350.181 -179.243 342.447 -178.127 346.789 -168.424C362.174 -161.569 381.046 -168.581 390.228 -173.825C388.939 -167.036 379.141 -166.283 381.489 -156.925C387.409 -144.902 407.82 -156.663 414.308 -156.671C408.604 -151.52 399.138 -148.895 395.635 -142.053ZM300.397 175.018C302.783 180.553 295.859 179.495 298.245 185.03C304.07 186.933 308.713 190.416 314.838 191.905C316.031 186.039 311.093 171.622 300.397 175.018Z" fill="#7AC7FF" fill-opacity="0.51"/>
<path fill-rule="evenodd" clip-rule="evenodd" d="M36.0105 571.168C36.0635 541.807 -9.96282 551.487 -7.76072 574.696C-5.54733 598.288 35.9461 600.146 36.0105 571.168Z" fill="#7AC7FF" fill-opacity="0.51"/>
</svg>
