<svg width="116" height="172" viewBox="0 0 116 172" fill="none" xmlns="http://www.w3.org/2000/svg">
<path fill-rule="evenodd" clip-rule="evenodd" d="M95.0599 15.2651C71.9922 21.2287 49.9705 26.8274 46.9583 50.3853C34.6531 54.8302 26.3871 62.1792 21.6607 72.0326C25.6712 82.4054 23.9216 91.7661 27.3278 105.81C20.7033 115.952 11.848 124.509 16.1129 142.427C20.6509 148.425 31.9542 144.888 30.5189 159.304C42.9636 152.923 46.1594 154.728 58.9828 156.419C56.4892 143.074 67.467 139.336 65.5181 126.366C75.7738 124.332 78.7408 117.081 88.6192 114.757C87.3369 102.838 88.3819 92.5672 97.6471 88.1426C95.1055 68.1821 93.4915 37.54 95.0599 15.2651Z" fill="#7AC7FF" fill-opacity="0.51"/>
</svg>
