<svg width="1192" height="271" viewBox="0 0 1192 271" fill="none" xmlns="http://www.w3.org/2000/svg">
<path d="M1186.08 89.5776C1186.11 91.2101 1185.68 93.0209 1186.62 94.4022C1192.38 102.948 1192.25 112.124 1190.59 121.37C1188.11 132.021 1184.61 142.612 1182.02 153.269C1180.89 157.958 1180.99 162.697 1180.38 167.415C1180.16 168.742 1179.74 170.131 1179.14 171.423C1177.85 174.274 1170.2 176.828 1177.09 180.211C1177.28 180.308 1174.85 182.524 1173.79 183.836C1172.28 185.696 1166.06 187.184 1171.55 189.945C1171.67 189.992 1169.3 192.627 1167.54 193.654C1134.76 212.401 1096.36 219.065 1055.8 220.922C1048.26 221.258 1041.02 222.635 1033.19 221.033C1028.64 220.076 1021.11 222.625 1016.04 224.801C1010.71 227.093 1007.24 226.615 1003.81 224.343C998.728 220.933 995.35 222.348 990.451 225.676C987.316 227.818 981.688 228.965 976.97 229.702C962.949 231.802 948.771 232.117 935.442 238.191C926.6 242.222 914.907 243.849 904.244 245.536C893.774 247.214 882.826 247.069 872.295 248.592C867.321 249.288 866.886 248.516 866.293 245.96C865.819 243.926 864.637 241.87 862.996 240.204C862.049 239.245 859.678 238.612 857.812 238.537C857.039 238.519 855.969 240.464 854.918 241.459C853.539 242.733 851.818 245.023 850.595 244.972C848.084 244.926 845.075 244.006 843.49 242.759C837.212 237.82 837.408 237.706 830.591 243.491C829.215 244.659 827.901 245.93 826.207 246.848C823.993 248.054 821.395 249.066 818.99 250.121C819.026 248.38 819.643 246.508 818.836 245.016C817.968 243.368 815.803 242.094 814.158 240.638C811.875 242.058 804.99 238.464 806.359 244.043C806.537 244.772 804.517 245.917 803.532 246.856C802.906 245.936 802.607 244.842 801.655 244.094L801.608 244.059C800.473 243.219 799.031 242.152 797.446 242.015C795.067 241.804 791.975 241.784 789.898 242.562C779.968 246.219 770.778 248.314 762.86 241.71C761.867 240.823 761.401 241.435 759.384 244.086L759.265 244.241C758.007 245.931 755.21 247.268 752.866 248.532C752.474 248.76 750.43 247.902 749.605 247.307C748.02 246.06 746.847 243.529 745.238 243.495C740.73 243.432 736.137 244.375 731.613 245.103C730.386 245.263 729.272 246.156 728.101 246.735C727.271 240.026 718.651 245.786 714.567 243.859C713.036 243.137 709.934 243.644 707.547 243.803C706.192 243.916 704.764 244.454 703.404 244.778C703.414 244.303 703.171 243.576 703.497 243.403C704.862 242.763 706.355 242.222 707.843 241.892C711.014 241.171 714.247 240.606 717.481 239.935C714.683 238.162 712.213 236.058 708.954 234.78C704.991 233.217 698.956 235.436 697.089 238.523C696.157 240.04 694.198 241.34 693.459 242.848C692.722 244.252 693.077 245.764 692.92 247.194C689.963 246.852 686.679 246.787 684.054 246.008C679.508 244.629 675.629 242.166 669.844 244.69C669.324 244.924 668.294 244.917 667.782 244.729C665.544 243.933 663.371 243.081 661.133 242.232C661.741 244.049 662.024 245.987 663.083 247.732C665.886 252.456 663.474 253.881 656.866 252.541C643.916 255.806 640.721 248.2 634.475 244.894C626.572 240.713 615.804 241.192 611.804 247.853C609.47 251.805 608.95 255.201 601.625 251.1C598.186 249.145 593.714 250.503 591.467 253.291C586.05 259.91 575.401 260.911 566.835 264.033C565.667 264.454 562.397 263.703 561.769 262.888C559.696 260.292 558.206 257.513 556.846 254.674C555.24 251.32 547.047 248.733 542.567 250.461C541.593 250.82 540.534 252.238 540.844 252.804C542.023 255.018 543.525 257.217 545.417 259.189C546.804 260.708 549.035 261.874 550.616 263.332C550.743 263.432 548.397 264.748 547.222 265.486C542.57 259.842 539.291 265.892 536.562 267.014C525.194 271.737 519.589 271.723 508.048 265.912C507.028 265.377 504.895 265.736 503.222 265.652C502.708 268.732 500.582 268.774 498.628 266.647C496.925 264.826 493.418 263.084 497.407 260.113C501.463 257.087 500.32 253.079 495.388 251.665C495.004 251.577 493.374 252.545 492.974 253.195C491.844 254.932 493.722 257.589 488.116 257.681C482.639 257.766 477.151 258.38 471.667 258.782C472.144 257.496 472.116 255.705 473.352 255.123C478.947 252.397 478.55 249.726 475.587 246.538C474.704 245.628 475.185 244.131 475.016 242.926C474.899 242.352 474.783 241.724 474.666 241.15C467.797 246.305 467.064 238.01 461.886 239.189C461.692 239.25 460.761 237.5 460.136 236.579C461.684 236.457 463.167 236.391 464.651 236.272C466.457 236.139 468.198 236.062 470.005 235.929C468.802 234.875 467.997 233.277 466.332 232.772C462.171 231.481 457.617 230.524 453.059 229.778C450.298 229.322 446.573 228.749 444.495 229.58C436.961 232.603 434.061 229.517 430.579 226.51C428.363 224.606 425.885 222.871 423.475 221.028C421.741 223.952 414.061 224.662 416.219 229.415C416.834 230.864 412.335 233.541 410.103 235.591C409.775 235.869 408.937 235.906 408.355 236.037C407.442 233.39 409.062 229.734 402.372 229.294C401.728 229.27 393.866 223.031 392.821 223.763C391.384 224.723 390.195 226.199 390.04 227.471C389.353 232.772 386.228 234.387 378.71 233.457C374.084 232.872 369.122 232.988 364.562 232.294C362.121 231.929 359.957 230.655 358.243 229.413C356.529 228.172 356.007 225.296 354.335 225.16C349.127 224.707 343.642 225.162 338.226 225.403C337.646 225.428 337.046 226.404 336.455 226.957C337.286 227.289 338.172 228.04 338.947 227.953C341.077 227.753 343.285 226.864 345.281 226.933C347.341 227 349.84 227.626 350.915 228.633C351.737 229.387 350.608 231.071 350.389 232.346C348.269 232.071 345.236 232.311 344.223 231.46C340.739 228.559 336.854 229.522 332.577 230.767C328.754 231.885 325.786 232.123 324.241 228.871C321.771 223.605 314.382 225.884 308.582 225.984C308.388 225.993 306.957 229.851 307.789 230.131C312.201 231.779 311.574 234.073 308.702 235.94C307.332 236.792 303.8 236.264 301.288 236.218C299.292 236.201 297.05 235.563 295.302 236.01C292.194 236.781 288.338 242.697 287.324 235.522C285.059 236.044 282.541 236.314 280.592 237.139C275.653 239.256 272.412 240.244 266.278 237.776C261.293 235.837 253.685 236.176 249.641 232.244C249.263 231.84 246.683 232.007 245.58 232.425C241.75 233.861 241.812 233.963 241.228 230.985C241.054 230.044 241.204 228.983 240.64 228.218C240.075 227.505 238.731 227.091 237.776 226.501C237.118 227.215 236.394 227.932 235.928 228.691C235.392 229.716 235.048 230.786 234.575 231.861C233.565 230.852 231.844 229.98 231.545 228.833C230.708 225.603 228.623 226.803 226.978 228.51C224.082 231.537 221.802 232.798 218.656 229.091C217.899 228.281 215.651 227.96 213.917 227.721C210.639 227.34 207.293 227.172 204.013 226.897C204.619 228.767 204.837 230.76 205.832 232.508C209.312 238.783 207.279 240.56 197.17 240.325C191.826 240.194 186.404 240.752 181.05 241.095C175.956 241.375 170.525 242.354 168.682 237.904C168.686 237.745 165.78 238.085 165.779 238.138C165.547 243.208 162.235 241.353 158.393 240.206C156.407 239.662 153.431 240.322 150.916 240.434C152.502 241.628 154.024 242.825 155.741 243.961C156.121 244.26 157.155 244.109 157.73 244.347C159.58 245.213 161.431 246.08 163.085 247.113C163.276 247.21 161.763 248.753 161.506 248.712C159.387 248.384 157.337 247.843 155.352 247.246C153.623 246.743 152.089 246.126 150.427 245.515C149.886 246.752 149.024 248.002 148.87 249.221C147.594 248.593 127.792 249.896 126.315 249.645C124.326 249.26 121.936 249.577 119.881 249.247C117.314 248.781 114.881 248.046 112.382 247.42C114.577 247.164 116.771 246.961 118.904 246.602C119.81 246.404 121.108 245.924 121.376 245.438C121.642 245.004 120.756 244.253 120.055 243.863C117.059 242.31 104.728 243.649 103.974 245.896C102.739 249.588 99.7454 247.929 97.5639 247.499C91.4686 246.295 100.174 245.855 98.2546 245.202C95.3123 244.174 91.2264 242.353 89.0225 243.031C79.6866 245.976 82.3897 239.742 80.6831 238.131C77.7749 235.414 82.9889 235.604 86.031 234.889C92.1142 233.511 95.0573 231.325 89.1391 227.741C86.3396 226.02 92.6755 215.355 96.4236 214.767C96.8105 214.75 97.6241 215.926 97.9326 216.597C98.9805 218.922 99.964 221.25 101.012 223.575C101.857 223.221 103.345 222.892 103.482 222.464C104.708 219.194 112.223 217.121 108.766 212.847C107.196 210.861 106.471 208.522 105.29 206.361C103.49 203.015 102.969 200.139 110.709 199.637C111.741 199.591 112.726 198.651 113.767 198.13C112.872 197.801 112.043 197.364 111.082 197.143C104.349 195.598 97.812 193.939 90.46 197.534C88.4441 198.467 84.8452 198.047 82.0104 198.068C80.2706 198.093 78.6039 197.693 76.8641 197.717C69.7094 197.93 62.4129 198.782 55.4666 198.248C47.3629 197.607 51.1771 190.586 45.5524 188.412C44.4659 187.986 41.2389 188.287 40.5168 188.952C35.1357 193.83 33.3906 194.118 30.5316 188.975C28.6045 185.529 26.8077 185.188 22.1302 187.135C20.96 187.662 18.5936 186.818 16.7302 186.585C17.9841 185.106 18.8049 182.75 20.5532 182.304C24.4389 181.287 29.0049 181.664 32.8272 180.598C34.64 180.148 35.3984 177.69 36.6534 176.158C34.9222 175.761 32.688 174.754 31.5844 175.172C27.4946 176.724 22.8627 173.241 18.4658 177.231C16.1696 179.284 13.4484 176.875 15.0408 174.59C17.2236 171.395 15.8244 171.393 11.2267 171.389L11.1762 171.389C7.56872 171.392 4.13406 169.225 0.745704 167.953C0.61889 167.853 1.22591 166.509 1.81047 166.272C4.14443 165.535 6.79116 165.26 9.06279 164.421C10.8143 163.816 12.1274 162.598 13.6285 161.635C12.0219 161.443 10.3466 161.465 8.93779 161.053C6.88846 160.459 3.3056 159.248 3.50651 158.87C4.84842 156.228 6.57719 153.568 9.13452 151.346C10.4465 150.181 13.8627 150.082 15.9441 149.093C16.5297 148.803 16.4414 146.804 15.6139 146.314C12.0513 144.101 8.22769 142.058 4.2074 140.181C0.250515 138.354 1.9301 138.121 5.54717 137.644C12.3289 136.763 19.0505 135.673 25.8354 134.633C26.7391 134.54 27.5869 134.028 28.496 133.671C27.7309 133.284 27.0989 132.679 26.265 132.505C20.2353 131.245 14.0745 130.097 8.0458 128.784C2.01606 127.524 1.28084 125.659 7.45311 123.065C8.81673 122.53 9.80204 121.59 10.9776 120.8C9.62893 120.596 8.2158 120.396 6.93377 120.084C5.46044 119.675 4.05373 119.158 2.58148 118.696L6.29831 116.475C7.53832 115.682 8.77727 114.942 10.0173 114.149C4.07126 111.936 6.7166 108.551 7.81557 105.182C8.5031 103.043 6.71028 99.3276 7.88261 98.6957C13.1426 96.6168 19.1677 94.9256 25.1081 94.2395C29.4989 93.7278 34.1735 95.101 38.7396 95.4775C40.5406 95.6081 44.0213 95.5059 44.2232 95.0753C45.2933 93.1302 45.9175 90.9415 45.6346 89.0039C45.5207 88.2711 42.5761 87.3481 40.8364 87.3728C37.6792 87.4079 34.1319 87.6185 31.3424 88.586C23.2981 91.3685 16.6621 88.238 9.52348 87.6597C7.59348 87.5348 5.58157 85.0945 5.09998 83.4293C4.86554 82.5078 7.44111 80.9527 9.13952 79.9271L9.23039 79.8723C14.9029 76.5101 21.2333 75.6486 28.4311 76.4877C35.9491 77.418 42.7932 76.639 46.5204 70.7282C48.2502 68.0158 59.5549 66.4585 63.645 68.0685C64.0921 68.2594 63.6838 69.3317 63.541 70.0233C63.2564 71.3536 62.8417 72.7424 62.4915 74.1283C64.4226 74.2005 66.2881 74.3283 68.2213 74.295C69.3174 74.2462 70.3587 73.7255 71.3892 73.7323C72.7411 73.7775 74.0865 74.1393 75.3707 74.3457C74.3875 75.18 73.6494 76.636 72.4856 76.8459C62.0729 78.8905 67.9698 83.5298 67.6402 87.0757C67.5672 87.5006 70.9641 88.3509 72.706 88.2206C77.4804 87.85 81.6714 87.6634 82.2349 91.644C83.6555 91.4754 85.7134 91.6473 86.3688 91.0911C96.2028 82.642 97.6288 72.6698 100.787 63.0421C101.062 62.1865 100.18 61.2244 99.8111 60.3448C98.0935 56.0993 100.699 57.8808 104.353 55.5572C111.923 50.7402 123.003 57.0988 128.367 49.9028C128.498 49.7916 130.489 50.0719 131.514 50.3425C138.498 52.1926 141.098 51.0755 144.417 46.2369C145.81 44.2247 140.931 40.2254 148.923 40.0278C148.615 39.3036 148.635 38.354 148.002 37.8024C147.243 37.0983 145.445 36.8094 144.88 36.0967C139.354 29.0164 139.035 28.8725 126.409 28.9075C124.218 28.9523 121.959 29.1583 119.903 28.8808C117.398 28.518 113.35 28.013 113.048 27.025C112.504 25.2572 114.096 22.9727 115.231 21.0247C115.497 20.5912 117.69 20.4936 118.983 20.2252C119.032 21.0137 119.209 21.7964 119.129 22.5905C118.975 23.8096 118.694 24.9817 118.476 26.2036C121.632 26.2213 124.853 26.1833 128.01 26.2009C127.777 24.9463 127.224 23.6533 127.443 22.3786C127.587 21.6343 128.836 20.3664 129.806 20.2179C132.197 19.8479 134.771 19.9441 137.219 19.9406C145.789 19.8227 154.422 19.8074 162.994 19.5839C164.412 19.5208 165.851 18.4553 167.28 17.8647C166.126 17.5998 164.974 17.2294 163.819 17.0173C160.161 16.3368 156.438 15.6592 152.78 14.9788C157.105 14.5227 161.493 14.1693 165.82 13.6077C166.918 13.5062 167.961 12.88 169.065 12.4619C168.043 12.033 166.956 11.607 165.869 11.2338C164.59 10.7637 163.244 10.4019 161.964 9.98451C163.453 9.65474 164.94 9.37771 166.366 8.9453C167.792 8.51288 170.056 8.04316 170.327 7.39863C172.907 0.853609 179.599 4.4033 181.049 5.97266C184.516 9.7186 194.485 7.32475 195.212 12.7738C198.38 12.2112 202.758 12.3326 204.395 10.9947C211.533 5.24825 219.727 7.78236 227.584 7.90702C230.353 7.94188 233.248 8.12926 235.749 8.70313C238.122 9.22999 240.29 10.293 242.201 11.3675C242.519 11.5641 241.253 13.6233 240.738 13.6463C238.16 13.7083 235.532 13.0347 232.95 13.3077C229.272 13.6296 225.52 14.3763 222.212 15.525C221.627 15.7619 222.524 19.2006 224.044 20.4505C224.804 21.1019 229.45 20.737 230.562 19.8969C235.142 16.3725 239.058 17.0415 243.459 19.2174C244.735 19.8458 246.98 20.3257 248.531 20.0458C256.224 18.7019 262.913 19.2475 269.692 21.6865C271.801 22.4886 276.351 20.4941 279.842 19.8644C281.588 19.5231 283.789 19.0035 285.199 19.3624C293.143 21.5387 293.013 21.5972 294.039 15.4376C294.478 12.8354 295.305 10.216 296.323 7.6408C296.594 6.99627 298.472 6.49101 299.579 5.91469C300.014 6.68591 300.773 7.39002 300.885 8.22834C301.115 9.58846 301.022 11.0157 301.058 12.3844C303.072 11.5569 305.404 10.926 307.164 9.89898C313.229 6.25584 328.963 8.61244 331.115 13.6819C331.175 13.89 328.58 14.7961 327.154 15.2285C325.339 15.7837 323.462 16.2362 321.585 16.6887C322.849 17.8974 323.584 19.7621 325.378 20.2093C329.735 21.3857 335.923 21.2157 331.759 26.4081C331.231 27.0114 332.881 28.2556 333.507 29.1765C335.387 28.5657 338.684 27.9973 338.891 27.3029C340.014 22.7729 346.416 18.3769 341.036 13.6619C340.213 12.9607 341.885 9.88197 342.079 9.87336C346.393 9.94485 350.637 10.3357 354.883 10.6211C353.694 12.0444 352.634 13.5146 351.446 14.9379C350.654 15.8691 349.734 16.7534 348.878 17.6875C350.286 18.0992 351.877 19.0825 353.17 18.8668C357.177 18.2141 363.528 19.5126 362.928 14.1633C362.817 13.2722 365.43 11.4693 366.981 11.2421C371.696 10.6106 376.53 10.5009 381.365 10.2856C382.719 10.2254 383.998 10.6955 385.219 10.852C384.357 12.0499 383.87 13.8636 382.574 14.2375C380.306 14.8655 377.42 14.2561 375.089 14.8342C373.275 15.3366 371.892 16.8212 370.326 17.8397C372.053 18.448 374.343 19.8745 375.316 19.5149C380.379 17.6557 382.395 19.8851 385.39 21.4911C392.527 25.3372 400.578 28.5628 398.812 36.2311C398.603 37.0311 401.353 38.0155 402.752 38.9019L404.937 35.9585C405.466 35.3025 405.739 34.5525 406.331 33.9463C407.515 32.7341 408.89 31.6188 410.202 30.4535C411.665 31.3898 413.063 32.329 414.656 33.2068C416.694 34.3283 418.928 35.3885 421.032 36.4544C421.386 34.8574 421.805 33.2576 422.095 31.6635C423.182 25.712 416.481 25.7994 410.435 25.3307C409.02 25.2355 407.81 24.5515 406.53 24.1341C407.121 23.5808 407.852 22.4414 408.367 22.4711C416.413 22.7982 421.16 17.4217 428.39 16.6782C431.036 16.4023 433.853 17.2784 436.484 17.7937C437.062 17.8734 437.496 18.6974 437.485 19.2249C437.523 20.5409 430.542 18.5326 434.803 21.2417C435.885 21.9315 443.903 23.5774 445.031 18.7836C445.595 16.3868 448.121 12.5322 441.106 12.212C438.596 12.1129 436.007 12.7024 433.497 12.6034C431.952 12.5667 430.484 11.8942 428.946 11.4883C430.447 10.5255 431.962 8.87683 433.38 8.81369C443.308 8.47723 453.294 8.40168 463.213 8.48725C464.372 8.48835 465.31 9.86965 466.39 10.6122C464.967 10.9391 463.537 11.5298 462.119 11.5929C459.216 11.7748 456.197 11.3821 453.418 11.8221C451.996 12.0435 450.87 13.5694 449.562 14.5236C450.964 15.3045 452.414 16.8739 453.769 16.7608C456.867 16.4648 459.981 15.3775 463.087 14.6595C471.047 12.8821 475.702 15.2048 474.887 20.459C474.736 21.5726 474.127 23.0227 474.884 23.7796C478.227 27.3203 476.262 28.8835 470.319 29.7278C468.575 29.9635 465.649 31.306 465.635 31.9918C465.61 33.2052 467.521 34.2797 468.658 35.3886C470.092 34.5869 471.461 33.7881 472.893 33.0391C473.74 32.5798 474.587 32.0677 475.559 31.8136C485.943 28.4157 485.935 28.4003 482.154 21.0486L482.092 20.9289C480.914 18.6622 481.343 16.5876 486.683 16.9297C491.83 17.2276 497.218 18.3582 501.925 14.9863C502.384 14.5969 504.758 15.0183 505.845 15.4443C520.547 21.0619 535.896 20.2206 551.089 14.3264C552.907 13.613 557.132 11.7384 557.159 10.4195C557.133 2.14578 563.866 6.85319 568.566 7.01296C574.681 7.21511 580.99 7.40864 587.061 6.66409C593.777 5.83808 600.26 3.81021 606.92 2.56504C613.45 1.37837 611.696 5.30402 613.134 7.45367C614.013 8.57408 614.953 9.84987 616.488 10.414C617.255 10.6961 619.47 9.49072 620.963 8.89717C623.237 7.95267 625.594 6.10847 627.785 6.06365C633.329 5.86959 639.859 7.84528 640.184 1.34795C642.435 1.51127 644.82 1.45784 647.003 1.83505C654.321 3.09049 661.507 4.50994 668.826 5.71263C669.853 5.87773 672.252 5.1385 672.52 4.59948C675.687 -2.23514 680.372 1.77279 682.584 3.88801C685.239 6.40516 687.13 5.26686 690.804 5.15603C697.96 4.89023 707.304 1.52274 712.397 7.6735C712.648 8.0313 716.196 7.76795 716.787 7.21458C721.055 3.22976 724.191 4.24972 729.368 6.23292C733.075 7.70183 739.347 6.52664 744.501 6.50806C751.136 6.52898 757.768 6.65542 764.406 6.51808C781.74 6.22086 798.895 8.40882 816.575 3.77431C822.145 2.31415 829.385 4.25827 835.891 4.28493C839.305 4.29109 842.861 3.60571 846.285 3.13708C847.253 3.04128 848.496 2.08993 849.072 2.27512C863.228 6.28321 879.318 3.77498 894.159 5.74972C905.851 7.33756 918.284 7.3112 930.45 7.77111C932.768 7.82606 935.3 6.81732 937.693 6.34186C939.311 6.00634 942.414 5.44656 942.475 5.60195C945.074 10.8623 951.469 6.83553 955.902 7.42882C961.684 8.17285 967.393 9.39454 973.31 9.81631C978.585 10.214 984.202 9.59507 989.543 9.83165C1002.42 10.4183 1014.35 12.8387 1023.25 18.6618C1028.33 22.0195 1033.17 21.9625 1039.58 19.9375C1042.24 19.0813 1045.59 19.1958 1048.62 19.061C1056.75 18.6466 1065.18 19.062 1072.94 17.6097C1076.3 16.9857 1077.85 16.8113 1081.06 17.4064C1090.75 19.1887 1100.82 18.1079 1110.96 16.6023C1129.85 13.7648 1148.1 15.6303 1166.28 17.4883L1167.89 17.6526C1175.02 18.3891 1175.38 22.8003 1176.41 26.3388C1177.61 30.449 1177.46 34.7776 1178.54 38.8935C1180.81 47.3306 1184.51 55.5463 1185.82 64.0791C1187.07 72.4566 1186.06 81.0928 1186.08 89.5776Z" fill="#DFF5B0"/>
</svg>
